<svg xmlns="http://www.w3.org/2000/svg" xmlns:xlink="http://www.w3.org/1999/xlink" version="1.1" x="0px" y="0px" viewBox="0 30 100 80" xml:space="preserve">
  <g fill="white" transform="rotate(180) translate(-100, -100)">
  <path d="M49.689,49.695c0.208,0,0.417,0,0.625,0c0.033,0.268-0.266,0.404,0,0.469C50.157,50.556,49.624,50.04,49.689,49.695z   M49.766,50.465c0.414-0.002,0.919,0.087,0.937-0.312c-0.536,0.123-0.805-0.146-0.469-0.469c-0.271,0.012-0.485-0.034-0.624-0.156  c0.047,0.307-0.21,0.31-0.313,0.468C50.009,49.889,49.939,49.819,49.766,50.465z M50.326,49.684  c-0.162,0.087-0.619,0.152-0.78,0.625C49.989,50.375,50.76,49.979,50.326,49.684z M50.312,50.276c0-0.156,0-0.313,0-0.469  c-0.39-0.02-0.487-0.298-0.624,0.156C49.999,49.965,49.887,50.389,50.312,50.276z M50.382,50.312c0-0.208,0-0.416,0-0.624  C49.25,49.674,49.482,50.19,50.382,50.312z M49.844,50.372c0.224-0.466-0.127-0.531,0.156-0.937  c-0.525-0.005-0.318,0.723-0.625,0.937c0.271,0.022,1.278,0.508,1.249-0.155C50.248,50.153,50.285,50.501,49.844,50.372z   M50.39,49.941c-0.498,0.134-0.482-0.246-0.78-0.313c0.007,0.214-0.074,0.342-0.156,0.469c0.363-0.091,0.66,0.525,1.093,0.155  c-0.121-0.035-0.308-0.005-0.313-0.155C50.33,50.087,50.418,50.072,50.39,49.941z M49.853,49.972  c0.084,0.051,0.186,0.06,0.292,0.054C50.162,49.997,50.101,49.981,49.853,49.972z M49.22,49.999c0.329,0.245,0.864,0.28,0.937,0.782  c0.415-0.054,0.526-0.411,0.624-0.782c-0.825-0.134-0.021,0.382-0.624,0.47c-0.469-0.516,0.22-0.818,0.312-1.249  c-0.26,0-0.521,0-0.779,0C50.041,49.83,49.454,49.617,49.22,49.999z M50.31,49.999c-0.087,0-0.178-0.127,0-0.157  c0.095-0.009,0.185-0.023,0.156-0.156c-0.344,0.176-0.861,0.18-0.938,0.625C49.917,50.334,50.177,50.229,50.31,49.999z   M49.559,50.108c0.45,0.07,0.487,0.552,1.093,0.468c-0.053-0.552-0.01-0.804-0.156-0.937c-0.042,0.142-0.691,0.415-0.624,0.156  c0.185-0.076,0.354-0.167,0.468-0.313c-0.385,0.315-1.211-0.414-0.937,0.156C49.541,49.217,49.897,49.969,49.559,50.108z   M49.635,49.937c-0.12,0.035-0.307,0.004-0.312,0.156c0.275,0.035,0.781-0.158,0.624,0.313c0.431,0.054,1.157-0.388,0.78-0.625  c-0.219,0.564-0.765-0.632-1.561,0C49.35,49.805,49.61,49.754,49.635,49.937z M50.391,49.839c-0.001,0.157,0.126,0.186,0.156,0.313  c-0.123,0.035-0.31,0.004-0.313,0.156c0.489,0.073,0.439-0.393,0.624-0.624c-0.408,0.238-1.387-0.301-1.718,0.312  C49.591,49.978,50.164,50.081,50.391,49.839z M49.532,49.376c0.048,0.358-0.451,0.173-0.468,0.467  c0.996,0.45,1.203,0.592,1.872,0.781c-0.173-0.295-0.389-0.548-0.468-0.937c-0.274-0.09-0.916,0.188-0.937-0.156  C49.62,49.532,49.709,49.405,49.532,49.376z M50.558,50.079c-0.61,0.246-0.322-0.406-0.623-0.469c0.025,0.657-0.351,0.107-0.469,0  c-0.167,0.582,0.586,0.247,0.469,0.78C50.224,50.369,50.456,50.287,50.558,50.079z M96.384,64.891  c-0.252-0.439,0.27-0.469-0.065-0.997c-0.414,0.289-0.775-0.499-1.418-0.421c0.233,0.469,0.464,0.263,0.933,0.844  c-0.569,0.65,0,0.403-0.063,0.907c-0.821,0.009-0.125-1.218-0.794-1.316c-0.32,0.822,0.388,1.341-0.217,1.943  c-0.361-0.722-1.255,0.311-1.942-0.217c-1.713,1.757-4.421-0.255-6.649,1.065c-1.952-0.9-5.505,0.757-7.175-0.635  c-0.396,0.087-0.801,0.124-1.254-0.115c0.01,0.186,0.098,0.357,0.205,0.525c-1.529,0.348-1.572,0.346-3.518,0.398  c0.271-0.37,0.684,0.06,0.921-0.499c-0.423,0.162-1.518-0.168-1.483,0.486c-0.273,0.141-0.597,0.003-0.946-0.281  c0.134-0.305,0.325-0.277,0.486-0.422c-1.245,0.515-2.958-0.182-3.172-1.456c-0.956-0.148,0.139,0.729-0.242,1.163  c-0.129-0.089-0.258-0.178-0.385-0.269c0.431,0.633-0.131,0.635-0.844,0.936c-0.15-0.19,0.165-0.129,0.27-0.386  c-0.216,0.054-0.5-0.29-0.654,0.116c0.033-0.391,0.17-0.306,0.193-0.819c-0.272-0.268-0.441,0.04-0.73-0.319  c-0.126,0.246,0.018,0.446,0.333,0.615c-0.133,0.304-0.324,0.276-0.484,0.421c-0.086-0.246-0.018-0.52-0.027-0.78  c-0.454,0.058-0.609,0.44-1.227,0.665c-0.604-0.668-0.943,0.159-1.548-0.51c-0.076-0.495,0.126-0.422,0.192-0.818  c-0.788-0.019-1.489-0.313-2.062-0.869c-0.526,0.354,0.556,0.426,0.027,0.781c0.361,0.146,0.618-0.306,1.035,0.153  c-0.118,0.17-0.238,0.34-0.357,0.51c-0.163-0.157,0.223-0.413,0.014-0.562c-0.311,0.217-0.391,0.426-0.998,0.063  c-0.21,0.512-0.499,0.563-0.87,0.153c0.099,0.547-0.498,0.401-0.755,0.809c-0.079-0.379-0.719-0.348-1.112-0.588  c0.147-0.224,0.327-0.267,0.524-0.205c-0.043-0.811-0.759-0.144-0.717-0.883c-0.185,0.011-0.356,0.098-0.523,0.204  c-0.257-0.425-0.793-0.8-1.28-0.894c0.102,0.393,0.7,0.697,0.973,1.062c-0.225,0.21-0.594-0.399-0.741,0.242  c0.139,0.196,0.072,0.236,0.314,0.587c-0.186-0.037-1.087-0.088-1.44-0.61c-0.328,0.281,0.092,0.431,0.116,0.65  c-0.053,0.126-0.136,0.085-0.218,0.038c-0.093-0.099-0.156-0.033-0.218,0.039c-0.004-0.783-0.26-1.523,0.14-2.379  c-0.174-0.139-0.348-0.275-0.474-0.141c-0.315-0.303,0.275-0.406,0.435-0.077c-0.547-0.837,0.459-0.611-0.281-0.959  c0.581,0.008,0.717-0.846,0.114-1.253c0.856-0.441,1.826-0.238,2.813,0.063c0.455-0.723,1.38-0.242,2.43-0.206  c-0.491-0.037-0.525,0.156-0.479,0.417c-0.003,0.002-0.004,0.003-0.006,0.005c0.002,0.001,0.005,0.002,0.007,0.002  c0.045,0.248,0.154,0.552,0.019,0.778c0.15,0.004,0.302,0.011,0.474,0.141c0.043-0.766,0.526-0.155,0.959-0.282  c-0.067-0.344-1.025-0.396-1.451-0.637c-0.001-0.002-0.001-0.004-0.001-0.007c0.735-0.822,0.54,0.73,1.171-0.315  c0.621,0.641,0.767,0.573,1.701,1.38c0.059-0.346-0.298-0.619-0.717-0.882c0.314-0.343,1.059-0.167,1.164,0.242  c0.224-0.226,0.254-0.418,0.013-0.562c0.526,0.229,0.927,1.431,2.047,1.431c-0.035-0.33-0.537-0.577-0.5-0.921  c-0.295,0.37-0.542,0.321-0.729-0.318c0.124-0.255,0.305-0.179,0.217-0.04c0.165,0.085,0.272-0.156,0.396-0.294  c0.68,0.217,0.251,0.628,0.499,0.922c0.424-0.295,0.432-0.427,0.972-0.845c0.597,0.284,2.173,0.971,2.903-0.066  c0.521,0.201,0.483,0.344,1.074,0.37c-0.243-0.331-0.16-0.718-0.193-1.087c0.285-0.072,0.692,0.052,0.73,0.319  c-0.177,0.054-0.368,0.031-0.563-0.013c-0.106,0.356,0.682,0.554,0.935,0.846c0.008-0.189-0.202-0.339,0.012-0.565  c0.642,0.186,0.908,0.645,1.625,0.947c-0.602-0.591-0.511-0.913-0.974-1.062c0.397-0.217,0.546-0.217,0.819,0.191  c-0.527-1.136,2.366,0.115,2.225-0.73c0.262-0.308,0.098,0.33,0.512,0.358c-0.162,0.137-0.366,0.044-0.524,0.206  c0.094,0.287,0.555-0.046,0.334,0.612c0.445,0.125,0.052-0.472,0.485-0.423c0.598,0.479,0.823,0.374,1.304,0.59  c-0.02-0.062-0.032-0.131-0.025-0.218c0.142,0,0.284,0,0.427,0c-0.558-0.187-1.234-0.363-1.437-0.755  c0.125-0.137,0.308,0.055,0.473,0.142c0.335-0.5,0.173,0.502,0.946,0.279c-0.074-0.169-0.271-0.478-0.477-0.635  c-0.163-0.015-0.271-0.026-0.358-0.042c-0.021,0.018-0.041,0.025-0.06,0.051c0.001-0.024,0.01-0.035,0.013-0.058  c-0.253-0.054-0.249-0.16-0.621-0.544c0.649,0.4,0.785-0.12,1.248-0.312c-0.132-0.458-0.502,0.092-0.78,0  c0.015-0.223,0.025-0.442-0.156-0.47c0.161-0.097,0.538-0.093,0.47-0.779c-0.752,0.807-0.134-0.45-0.313-1.249  c-0.048-0.212-0.391-0.13-0.624-0.156c-0.353,0.087,0.189,0.243-0.156,0.468c0.068,0.193,0.201,0.321,0.468,0.313  c0.074,0.489-0.392,0.44-0.624,0.625c-0.136,0.462,0.667,0.77,0.313,0.937c-0.278,0.044-0.321-0.148-0.156-0.157  c-0.563-0.165-0.64-0.815-1.092-1.092c0.169-0.19,0.98-0.616,0.779,0.156c0.451-0.25,0.188-0.584,0-0.937  c-0.491,0.666-1.533-0.063-1.957,0.504c0.25-0.538-0.866-0.542-1.164-0.191c0.065-0.304,0.306-1.771,1.561-1.405  c-0.387-0.274-0.256-0.285,0.156-0.468c-0.098-0.381-0.788-0.084-0.625,0.312c-0.211-0.049-0.129-0.391-0.155-0.625  c-0.834,0.36-0.934-0.245-1.562-0.468c-0.267-0.007-0.403,0.116-0.469,0.312c0.057,0.219,0.275,0.015,0.313-0.156  c0.468,0.104-0.149,0.334,0,0.626c-0.418,0.106-0.303-0.323-0.469-0.47c-0.552,0.019,0.332,0.518-0.156,0.47  c-0.64,0.028,0.182-0.744,0.156-1.094c0.476-0.099,1.347,0.2,1.562-0.155c0.496,0.126,0.219,1.03,0.937,0.936  c0.49-0.199-0.339-0.743,0.313-0.78c-0.391-0.286-1.169-0.185-1.093-0.937c-0.126,0.03-0.156,0.157-0.313,0.156  c0.005,0.152,0.191,0.121,0.313,0.156c0.049,0.359-0.451,0.173-0.468,0.469c-0.549-0.656-1.585,0.04-2.029-0.781  c-0.271,0.141-0.432,0.575,0,0.625c-0.068,0.245-0.491,0.133-0.313,0.624c-0.256-0.368-0.451-0.796-0.937-0.937  c0.02-0.131,0.263-0.211,0.292-0.259c0.462-0.022,1.066-0.431,1.271-0.054c0.403-0.414-0.707-0.639-0.938-0.938  c-0.461,0.137,0.361,0.234,0.155,0.626c-0.207,0-0.415,0-0.624,0c0.12-0.625-0.777-0.652-1.092-1.249  c-0.187,0.467,0.873,0.901,0.468,1.717c-0.278-0.115-0.022-0.284,0-0.468c-0.405-0.094-0.563,0.062-0.468,0.468  c-0.515-0.563-0.148-0.064-0.625,0c0.1-0.381,0.314-0.804-0.313-0.78c0.039-0.17,0.312-0.106,0.313-0.313  c-0.038-0.402-0.268,0.215-0.623,0c-0.022-0.592,0.819-0.323,0.936-0.779c-0.039-0.171-0.312-0.106-0.313-0.313  c-0.591,0.098,0.168,0.651-0.623,0.625c-0.214-0.539,0.7-0.738,0.154-1.094c-0.23,0.068,0.063,0.199,0,0.469  c-0.181-0.025-0.277,0.034-0.311,0.156c-0.21-0.104-0.291-0.334-0.313-0.625c-0.272,0.143-0.778,0.054-0.937,0.313  c0.261-0.01,0.695,0.212,1.093,0.469c-0.043,0.529-0.61,0.534-0.624,1.093c0.297-0.068,0.392-0.337,0.781-0.313  c0,0.327,0.849,0.587,0.467,0.781c-0.706,0.116,0.239-0.429-0.467-0.312c-0.354,0.087,0.188,0.243-0.157,0.468  c-0.753-0.078-0.323-0.368-0.938,0c0.172-0.487,0.16-0.499-0.468-0.468c-0.151-0.569,0.761-0.072,0.468-0.782  c-0.361,0.566-0.116-0.094-0.78,0c0.231-0.463,0.604-0.163,1.094-0.154c-0.084-0.126-0.164-0.254-0.156-0.469  c-0.632,0.395-1.063-0.544-1.873-0.469c0.033-0.484,0.775-0.264,1.248-0.313c-0.199-0.75-1.794,0.218-1.404-0.624  c-0.104,0-0.208,0-0.313,0c-0.258-0.067,0.015,0.582,0.156,0.624c-0.148,0.115-1.136,0.513-0.313,0.625  c-0.491,0.197,0.125,0.527-0.622,0.469c-0.021-0.281,0.189-0.329,0.154-0.625c-0.103,0-0.207,0-0.312,0  c0.021,0.372-0.418,0.372-0.781,0c0.145-0.523,0.291-0.078,0.781-0.156c-0.62-0.384-0.566-0.662-1.405-0.625  c-0.231,0.132-0.227,0.503-0.313,0.781c-0.313,0-0.623,0-0.936,0c0.107-0.126,0.242-0.428,0-0.469  c0.138-0.422,0.692,0.133,0.313,0.313c0.126-0.135,0.426-0.092,0.468-0.313c-0.026-0.182-0.286-0.131-0.468-0.156  c-0.074-0.333,0.223-0.297,0.468-0.312c-0.056-0.204-0.274-0.245-0.312-0.468c-0.212,0.153-0.313,0.417-0.469,0.624  c-0.396-0.125-0.398-0.642-0.626-0.936c-0.458,0.132,0.204,0.393,0,0.78c-0.267,0.034-0.403-0.266-0.468,0  c-0.277-0.114-0.022-0.283,0-0.468c-0.766,0.362-2.76-0.196-3.589,0.78c-0.065-0.375,0.284-0.338,0.154-0.78  c0.792-0.015,0.967-0.235,1.404,0c0-0.105,0-0.209,0-0.312c-0.212-0.219-0.642,0.096-0.936-0.156  c0.02-0.345,0.662-0.066,0.936-0.156c-0.02-0.257-1.07-0.257-1.092,0c-0.471-0.188,0.083-0.741,0.313-0.313  c-0.437-0.941-1.349,0.583-1.561-0.313c-0.17,0.039-0.106,0.312-0.313,0.313c0.069,0.192,0.201,0.321,0.469,0.313  c-0.347,1.07-1.748,0.823-2.028-0.313c-0.225,0.088-0.381,0.244-0.469,0.469c0.038-0.29-0.488-0.417-1.093-0.469  c0.115,0.146,0.283,0.238,0.468,0.313c-0.235,0.222-0.673,0.578-0.937,0.313c0.755-0.417-0.563-0.276-0.78-0.625  c0.055-0.205,0.274-0.245,0.311-0.468c-0.049-0.212-0.39-0.129-0.624-0.156c-0.328,0.044,0.226,0.417-0.157,0.625  c-0.474-0.225-0.613,0.157-1.093,0.313c-0.39-0.407,1.224-0.693,0.313-1.249c-0.295,0.018-0.109,0.516-0.469,0.468  c0.578,0.479-0.293,0.298-0.624,0.625c0.224-0.454,0.12-0.176-0.313-0.156c-0.26-0.31,0.014-0.198,0-0.625  c-0.758,0.315-0.545-0.205-1.249,0c0.069-0.139,0.137-0.279,0.312-0.312c-0.404-0.419-0.979-0.427-1.561-0.313  c0.109-0.48,0.109-0.3,0-0.78c0.104,0,0.208,0,0.312,0c-0.404-0.521-1.002,0.644-1.404,0.155c0.393,0.595,1.093,0.884,1.249,1.717  c-0.502,0.034-0.38-0.556-0.625-0.78c-0.126,0.134-0.428,0.093-0.469,0.312c-0.265-0.101-0.097-0.359,0.156-0.312  c-0.153-0.354-0.781-0.387-0.78,0.156c-0.467-0.834-0.683,0.031-0.468-1.093c-0.159,0.102-0.162,0.359-0.468,0.313  c0-0.104,0-0.209,0-0.313c-0.394,0.295,0.143,0.548-0.157,0.937c-0.587-0.28-0.525-0.389-0.624,0.156  c-0.489-0.328-0.501-0.227-1.249-0.156c0.204-0.208,0.096-0.471-0.156-0.624c0.271-0.198,0.409-0.528,0.937-0.468  c0.014-0.583,0.175-0.445,0-0.937c-0.329,0.44-0.101,0.802-0.469,0.156c-0.222,0.455-0.396,0.957-0.936,1.092  c0.52,0.183,0.23,1.069-0.468,0.937c-0.187-0.412,0.75-0.403,0-0.469c0.004-0.151,0.19-0.121,0.312-0.155  c-0.247-0.483-0.538-0.919-0.937-1.249c-0.394,0.205,0.409,0.512,0.312,0.936c-0.925-0.569-1.052,0.472-1.873,0.468  c0.038-0.274,0.269-0.355,0.625-0.312c-0.315-0.725-0.983,0.569-0.937-0.625c-1.044-0.08-0.712-0.275-1.873-0.156  c0.302,0.551-0.072,0.699-0.156,1.249c-0.334-0.234,0.112-0.381-0.155-0.781c-0.415,0.055-0.527,0.41-0.625,0.781  c-0.344-0.086-0.741-0.365-0.468-0.625c-0.238,0.241-1.07,0.279-0.937-0.312c-0.125,0.108-0.428,0.243-0.468,0  c-0.025,0.548-1.17-0.026-0.937,0.78c-0.65-0.623-0.11,0.164-1.092,0.156c0.289-0.23,0.234-0.806,0.78-0.781  c0.007-0.266-0.116-0.404-0.312-0.468c0.057,0.431-0.745,0.369-1.093,0.468c-0.013,0.222-0.026,0.442,0.156,0.469  c-0.66,0.408-1.295-0.129-2.03,0.155c-0.047-0.637,0.217,0.026,0.625-0.155c0.007-0.683-1.016-0.194-0.469-1.093  c-0.321-0.058-0.792,0.856-0.781,0.156c-0.142,0.043-0.415,0.692-0.156,0.625c-0.001,0.368-0.426-0.057-0.312-0.312  c-0.622-0.134-0.423,0.963-0.937,0.468c0.122,0.139,0.168,0.353,0.156,0.624c-0.478,0.532-1.345-0.381-1.249,0.156  c-0.199-0.035-0.205-0.466,0-0.469c-0.594-0.123-1.539-0.149-2.029,0.156C23.042,48,22.8,47.191,22.514,47.2  c-0.454,0.033-0.774,0.612-1.093,0.312c0.365,0.616-0.429,0.692,0.156,0.78c-0.112,0.774-1.076-0.116-1.092,0.156  c-0.257-0.55,0.51-0.34,0-1.093c0.401,0.015,0.223,0.61,0.625,0.625c0.208-0.071-0.188-0.674,0.312-0.78  c-0.316,0.058-0.214-0.418-0.624-0.625c-0.532,0.167,0.434,0.048,0.156,0.468c-0.313,0.052-0.489-0.032-0.468-0.313  c-0.143,0.043-0.415,0.692-0.156,0.625c-0.138,0.424-0.693-0.13-0.312-0.312c-0.228,0.137-0.604,0.124-0.469,0.624  c-1.277-0.323-2.117,0.367-2.497-0.156c-0.126,0.083-0.254,0.164-0.468,0.156c0,0.208,0,0.416,0,0.624  c-1.285-0.054-1.443,0.063-2.186,0.469c-0.287-0.466-0.263,0.057-1.093-0.313c0.102,0.16,0.359,0.162,0.313,0.469  c-1.836,0.003-2.126,0.759-2.966,1.561c-0.183-0.024-0.132-0.284-0.157-0.468c-0.245,0.067-0.133,0.491-0.624,0.312  c0.048,0.369,0.542,0.291,0.468,0.782c-0.126-0.109-0.428-0.243-0.468,0c-0.036-0.363-0.557-1.019,0.156-1.249  c-0.018-0.034-0.665-0.385-0.624,0.155c-0.342-0.022-0.335-0.393-0.313-0.78c0.489-0.032,0.527-0.513,1.093-0.469  c-0.02-0.345-0.663-0.066-0.937-0.156c0.108-0.615,0.177-0.691-0.468-0.78c0.103-0.209,0.333-0.291,0.624-0.313  c-0.025-0.183-0.285-0.132-0.469-0.156c0.011-1.493,1.497-0.83,1.874-1.717c0.232,0.068-0.062,0.2,0,0.468c0.104,0,0.208,0,0.312,0  c-0.078-1.235-0.321-1.093-0.156-2.029c-0.183,0.441-0.731,0.518-1.248,0.625c-0.243-0.555,0.53-0.094,0.468-0.469  c-0.57-0.61-0.806,0.434-1.093,0.625c-0.388-0.023-0.045-0.528,0-0.625c-0.312,0-0.625,0-0.937,0  c-0.211,0.048-0.129,0.391-0.156,0.625c-0.505,0.192-0.12-0.505-0.624-0.313c0.177,0.346-0.097,0.714-1.093,0.625  c0.697-0.304,0.29-0.337-0.468-0.313c0.083,0.125,0.163,0.253,0.156,0.468c-0.78-0.737-1.182,0.348-2.03,0.155  c0.044-0.355-0.037-0.586-0.312-0.624c0.114-0.146,0.283-0.236,0.468-0.313c-0.038-0.274-0.269-0.355-0.625-0.313  c0.53-0.482-0.662-1.167,0.312-1.093c-0.023-0.288-0.528-0.095-0.625-0.312c0.719-0.241-0.18-1.345,1.008-1.545  c-0.078,0.043-0.155,0.087-0.228,0.14c0.122-0.035,0.308-0.004,0.313-0.156c-0.031,0.004-0.056,0.011-0.085,0.016  c1.473-0.823,4.01-0.186,5.393-1.109c0.421,0.699-0.997-0.075-0.937,0.781c0.152-0.004,0.121-0.191,0.157-0.312  c1.013,0.788,2.094-0.702,2.653-0.937c0.024,0.388-0.246,0.482-0.313,0.78c0.309-0.043,0.758-1.039,0.781,0  c0.427-0.06,0.666-0.72,1.093-0.312c0.151-0.004,0.121-0.191,0.155-0.312c0.112-0.253-0.736-0.253-0.624,0  c-0.367-0.714,1.25,0.194,1.249-0.625c-0.103-0.468-0.334,0.149-0.625,0c-0.06-0.677,0.752-0.239,0.781-0.468  c0.525,0.141,0.018,0.349,0.312,0.624c0.212-0.048,0.129-0.391,0.156-0.624c0.091,0.48,0.965,0.179,1.249,0.468  c0.235-0.135-0.043-0.233,0.156-0.625c0.384-0.02,0.752-0.023,0.937,0.157c0.116-0.48-0.429-0.3-0.313-0.781  c0.391,0.103,1.228,0.361,1.093-0.312c0.45,0.019,1.021-0.085,1.249,0.157c0.047-0.412-0.216-0.513-0.624-0.469  c0.102-0.21,0.333-0.291,0.624-0.313c-0.417,0.403,0.359,0.165,0.156,0.781c0.404-0.706,0.383-0.065,1.248-0.469  c-0.39-0.277-0.168-0.199-0.155-0.781c0.347,0.122,0.608,0.328,1.093,0.313c0.327-0.044-0.227-0.417,0.156-0.625  c0.492,0.341,0.2,0.493,0.781,0.157c-0.322,0.308,0.107,0.416,0.468,0.468c-0.088,0.225-0.243,0.381-0.468,0.468  c0.251,0.285,0.495-0.11,0.78,0.312c0.834-0.752,1.735-0.123,2.654-0.468c-0.186-0.128-0.677-0.233-0.937,0  c-0.697-0.618,1.138-1.062,0.625-0.312c0.389-0.078,0.521-0.416,0.937-0.468c-0.703-0.153,0.181-0.222,0.625-0.469  c0.227,0.069-0.016,0.137,0,0.312c0.104,0,0.208,0,0.312,0c0.159-1.428,3.173,0.159,3.903-1.092  c0.343,0.422,0.519,0.043,0.937,0.313c0-0.417-0.494-0.339-0.468-0.781c0.729,0.582,1.801-0.527,2.654,0.781  c-0.515-0.111-0.998-0.251-1.561-0.313c-0.125,0.083-0.254,0.164-0.469,0.156c0.446,0.284,1.253,0.205,1.562,0.625  c0.021-0.238,0.523-0.511,1.092-0.625c-0.004,0.152-0.191,0.122-0.312,0.157c0.121,0.138,0.168,0.353,0.157,0.624  c-0.18-0.188-0.396-0.061-0.157,0c-0.632,0.353-1.296-0.276-1.873-0.156c0.737,0.627,1.411,0.571,2.498,0.312  c-0.083-0.125-0.163-0.253-0.156-0.468c0.297,0.292,0.392,0.017,0.78,0c-0.013,0.221-0.025,0.442,0.156,0.468  c0.199-0.338,0.038-0.347,0.313-0.78c0.23,0.181,0.393,0.181,0.624,0c-0.545-0.621-1.158,0.607-1.717,0  c0.188-0.467,0.168-0.656-0.313-0.781c0.305-0.541,0.624,0.191,0.937,0.156c-0.121,0.139-0.167,0.353-0.155,0.625  c0.125-0.083,0.253-0.163,0.468-0.157c-0.438-0.641,0.616-0.077,0.469-0.624c0.088,0.274,0.991,1.052,0.312,1.093  c0.039,0.169,0.311,0.106,0.313,0.312c0.395-0.982,1.47,0.031,1.873-1.093c0.551-0.273,0.798,0.631,1.25,0  c0.383,0.233,0.349,0.641,0.936,0.312c0.107,0.42-0.323,0.302-0.468,0.469c0.083,0.125,0.163,0.253,0.156,0.468  c0.155-0.615,1.249-0.615,1.404,0c0.403-0.038-0.214-0.268,0-0.624c0.611,0.283,1.027-0.379,1.25-0.937  c0.221,0.3,0.758,0.282,1.093,0.468c-0.048,0.211-0.391,0.129-0.624,0.156c0.023,0.289,0.528,0.096,0.624,0.313  c0.048,0.36-0.451,0.173-0.468,0.468c0.244-0.071,1.073-0.031,1.717-0.312c0.169,0.483,0.823,0.007,1.093,0.625  c-0.061-0.452,0.951-0.69,1.405-1.093c0.361,0.176-0.221,0.605,0.313,0.781c0.211-0.048,0.129-0.391,0.156-0.624  c0.149,0.262,0.519,0.487,0.624,0c0.328,0.043-0.226,0.417,0.156,0.624c0.495-0.233,1.378-0.079,1.873-0.312  c0.361,0.316,0.107,1.246,0.938,1.093c-0.066,0.347-0.828,0.123-0.938,0c0.297,0.482,1.436,0.423,1.874,0.312  c0.026-0.338-0.554-0.071-0.78-0.156c0.198-0.558,0.508-0.411,1.093-0.312c-0.152-0.16-0.309-0.316-0.469-0.469  c-0.341-0.159,0.563,0.299,0.936-0.156c0.162,0.097-0.02,0.652,0.626,0.625c-0.785,0.436,0.544,0.518-0.156,0.625  c0.082,0.125,0.162,0.253,0.156,0.469c0.125-0.083,0.252-0.163,0.468-0.157c-0.016-0.106,0.361-0.519,0.155-0.625  c0.303-0.538,0.219,0.597,0.469,0.625c-0.152,0.16-0.309,0.315-0.469,0.468c0.777,0.38,1.207,0.877,1.562-0.156  c0.047-0.41-0.605-0.123-0.467-0.624c0.259,0,0.519,0,0.779,0c-0.289,0.93,1.051,0.62,0.313,0.937c0.383,0.205,0.764,0.054,1.405,0  c-0.122-0.139-0.169-0.353-0.156-0.625c0.247,0.313,0.989,0.649,0.78,0.937c0.133,0.029,0.147-0.06,0.156-0.156  c0.501,0.366-0.703,0.676-0.78,0.156c-0.037,0.482,0.068,0.619-0.938,0.468c-0.15,0.568,0.762,0.072,0.47,0.781  c-0.479,0.113-0.569-0.16-0.937-0.156c-0.127,0.029-0.156,0.157-0.313,0.156c0.029,0.126,0.156,0.156,0.156,0.312  c0.515-0.11,0.997-0.25,1.562-0.312c0-0.208,0-0.416,0-0.625c0.778-0.189,1.403-0.306,2.028-0.78  c0.022,0.501,0.791,0.725,0.47,1.092c0.225,0.247,0.348-0.016,0.936,0c-0.013-0.581-0.232-0.503,0.156-0.78  c-0.337-0.525-0.717,0.205-1.092,0.156c0.033-0.433,0.493-0.442,0.623-0.781c0.583,0.198,0.967,0.596,1.249,1.093  c0.414-0.002,0.92,0.087,0.937-0.312c0.111,0.658,1.132,0.418,2.029,0.156c0.021,0.28-0.189,0.33-0.156,0.625  c-0.541-0.563-0.753,0.494-1.562-0.157c-0.063,1.051-0.294,0.005-0.779,0.625c0.102,0.159,0.358,0.162,0.312,0.469  c0.37-0.205,0.768-0.533,0.625,0.312c0.574-0.275,0.616-0.488,1.404-0.625c-0.132-0.704,0.265-0.88,0.625-1.093  c0.504,0.365-0.729,0.3-0.469,0.937c0.585-0.569,0.742,0.012,1.562,0c0,0.208,0,0.417,0,0.625c0.277-0.035,0.781,0.158,0.624-0.313  c0.501-0.137,0.324,0.405,0.625,0.469c-0.019,0.299-0.522-0.183-0.936,0c0.39,0.79,1.826-0.381,1.872,0.625  c-0.252,0.044-0.269-0.147-0.469-0.156c-0.077,0.9,1.255,0.261,1.405,0.313c-0.219-0.188-0.013-0.062,0.155,0  c-0.105,0.5-0.518,0.294-0.624,0.468c0.258,0.009,1.207,0.248,1.563,0c0.371,0.097,0.255,0.681,0.936,0.469  c-0.072,0.299,0.481,0.672-0.156,0.624c0.182,0.562,1.03-0.288,0.469-0.468c0.185-0.284,0.813-0.123,1.092-0.313  c0.045,0.421,0.104,0.945,0.938,0.937c-0.167,0.302-0.528,0.408-0.78,0.625c0.37,0.512,0.631-0.398,0.937-0.468  c0.091,0.293-0.09,1.025,0.78,0.624c0.024-0.181-0.035-0.277-0.156-0.312c0.049-0.331,0.543,0.164,0.468,0.468  c-0.22-0.013-0.441-0.025-0.468,0.156c0.104,0.341,0.819,0.004,0.624-0.468c0.636-0.198,0.617,0.94,0.937,0.156  c0.317-0.047-0.031,0.451-0.156,0.469c0.143,0.138,0.461,0.027,0.938,0.156c0.006,0.267-0.117,0.404-0.313,0.468  c0.283,0.289,0.94,0.203,1.248,0.468c0.32-0.926,0.205-0.132,0.937-0.156c-0.029,0.177-0.156,0.087-0.156,0  c-0.351,0.063,0.024,0.974-0.468,0.468c-0.102,0.776,1.186,0.022,0.624,0.937c0.368-0.048,0.291-0.542,0.781-0.468  c0.073,0.333-0.225,0.297-0.47,0.312c0.159,0.44,0.664-0.042,0.937,0c-0.087,0.226-0.242,0.381-0.467,0.468  c-0.269,0.008-0.405-0.115-0.47-0.312c-0.125,0.03-0.156,0.156-0.312,0.156c0.279,0.441,0.437,0.709-0.313,0.78  c0.387,0.504,1.041-0.607,1.404-0.156c0.439-0.153-0.226-0.417,0.156-0.624c0.237,0,0.476,0,0.714,0  c-0.46-0.692-0.925-1.369-1.488-1.625c0.177-0.218,0.031-0.379,0.229-0.601c-1.84-0.652-1.869-2.39-3.479-3.195  c0.15-0.415,0.435-0.081,0.613-0.333c-1.466-0.38-1.088-0.879-1.663-1.163c-0.104-0.509,0.162-0.561,0.498-0.984  c-0.341-0.239-0.561,0.209-0.906-0.063c0.266-0.551,0.261-0.602,0.752-0.807c-0.853,0.166-1.561,0.189-1.931-0.779  c-0.187,0.542,0.057,0.389,0.244,0.742c-0.432-0.054-2.218-1.661-2.022-2.558c-0.34-0.13,0.016,0.309-0.397,0.295  c-0.084-0.621-0.857-1.119-0.435-1.829c0.566,0.218,0.605,0.413,0.983,0.498c-1.015-0.671,1.249-0.47,0.372-1.074  c-0.284-0.28,0.405-0.127,0.563,0.013c0.265-0.271-0.633-0.337-0.115-0.652c0.281,0.421,0.467,0.41,0.984,0.499  c-0.197,0.713-0.317,1.018-0.128,1.815c0.815,0.072,0.555,0.825,1.229,1.24c0.368-0.029,0.688-0.342,1.049-0.41  c0.124,0.487,0.144,0.373,0.677,0.665c0.038-0.23-0.105-0.429-0.332-0.613c-0.532-0.053-1.129-0.473-1.561,0.052  c-0.204-0.226-0.128-0.5-0.46-0.703c0.198-0.143,0.414-0.19,0.613-0.333c-0.062,0.729,0.283,0.046,0.729,0.319  c0.097-0.391-0.985-0.573-0.41-1.048c0.149,0.421,1.14,0.695,0.666,1.227c0.149,0.004,0.301,0.012,0.474,0.14  c0.004-0.149,0.011-0.301,0.139-0.473c-0.678,0.355-0.188-0.763-1.189-1.023c0.568-0.103-0.136-0.245,0.229-0.601  c0.22,0.177,0.381,0.032,0.603,0.23c0.125-0.447-0.471-0.054-0.422-0.486c1.001-0.735,0.438,0.807,1.254,0.115  c-0.229-0.161-0.191-0.49,0.356-0.512c-0.106,0.186-0.362,1.327,0.781,1.879c-0.272,0.211-0.735,0.332-0.665,0.678  c0.368-0.038,0.623-0.708,1.011-0.627c0.315-0.505-0.892-0.74-0.884-1.189c0.336,0.256,1.553,0.355,1.062,0.934  c0.813,0.252,0.658-0.618,0.371-1.074c0.384-0.141,0.248,0.31,0.729,0.319c-0.442,0.082-0.125,0.292-0.013,0.563  c-0.107,0.232-0.274,0.135-0.395,0.294c0.561,0.374,0.971,1.396,1.561,1.854c-0.664,0.526-0.322,0.217-0.755,0.806  c0.512,0.572,0.844,0.12,1.292,0.332c-0.841,0.355-0.045,0.403,0.155,0.87c-0.106,0.251-0.27,0.171-0.436,0.077  c-0.155,0.451,0.465,0.211,0.639,0.448c0.008-0.188-0.201-0.338,0.014-0.563c0.483,0.861,1.057,0.932,1.88,1.124  c-0.343,0.325,0.31,0.7-0.281,0.947c0.485,0.315,0.452,0.039,0.613-0.333c0.061,0.158,0.121,0.314,0.257,0.179  c0.19,0.265,0.103,0.58-0.063,0.908c-0.331-0.224-0.09-0.204,0.051-0.346c-0.596-0.297-0.669-0.044-0.921,0.5  c0.701,0.077,1.175,0.715,1.983,0.434c-0.163,0.136-0.366,0.043-0.525,0.205c0.238,0.609,0.831,0.544,1.357,1.329  c-0.242,0.304-0.46-0.265-0.513-0.358c-0.573,0.438,0.18,0.641,0.5,0.921c-0.172,0.295-0.389,0.333-0.652,0.115  c0.502,0.961,1.288,1.092,2.137,1.303c-1.151-0.076,0.146,0.171,0.025,0.781c0.295-0.024,0.514-0.474,0.908,0.063  c-0.119,0.171-0.238,0.342-0.358,0.512c0.231,0.251,0.372-0.012,0.524-0.205c0.216,0.257,0.132,0.389-0.139,0.473  c1.217,0.073,0.099,2.508,1.418,2.327c0.137,0.164,0.045,0.367,0.206,0.525c-0.217,0.062-0.266-0.126-0.729-0.32  c-0.216,0.262,0.412,0.375,0.551,0.576c-0.18,0.256-0.358,0.512-0.538,0.767c0.128,0.089,0.257,0.18,0.385,0.269  c0.083-0.127-0.087-0.208-0.167-0.307c0.147-0.435,0.413-0.206,0.575-0.55c0.072,0.174-0.073,0.387,0.204,0.524  c-0.125,0.137-0.308-0.054-0.472-0.14c0.796,0.715,0.392,0.186,1.228,1.239c-0.108,0.231-0.275,0.136-0.396,0.296  c0.187,0.15-0.002,0.453,0.588,0.791c-0.163-0.942,0.521,0.351,0.679,0.665c0.639-0.226,0.349-0.195,0.767,0.537  c-0.997,0.227-0.801-0.566-1.727-0.255c-0.068,0.275,0.239,0.285,0.346,0.05c0.203,0.189,0.137,0.424-0.102,0.692  c0.451,0.229,0.788-0.19,1.177-0.321c0.229,0.407,0.634,0.784,0.665,1.228c-0.247,0.277-0.24-0.386-0.422-0.485  c-0.049,0.739-0.116,0.486-0.614,0.333c-0.159,0.214-0.137,0.397-0.013,0.563c0.884-0.048,0.459,0.235,1.331,0.549  c-0.505,0.067,0.097,1.01-0.537,0.768c-0.085,0.165,0.158,0.271,0.294,0.396c0.271,0.266,0.336-0.633,0.653-0.115  c-0.109,0.232-0.276,0.136-0.397,0.294c0.086,0.06,0.171,0.119,0.257,0.179c0.618-0.55,0.965,1.803,1.509,2.2  c0.091,0.512-0.77,0.668-0.279,0.945c-0.162,0.146-0.396-0.117-0.603-0.229c-0.116,0.369,0.636,0.882-0.152,1.034  c0.904,0.33,1.008,0.943,1.356,1.33C96.259,64.167,96.97,64.414,96.384,64.891z M79.901,42.698c-0.024-0.483-1.361-0.883-1.203-0.46  C79.021,42.148,79.373,42.872,79.901,42.698z M5.499,41.267c-0.292,0.022-0.522,0.103-0.625,0.313  c0.191,0.086,0.304,1.024,0.625,0.469C4.968,41.993,5.3,41.58,5.499,41.267z M7.372,41.736c-0.494-0.189-0.867-0.59-1.093-0.624  c0.095-0.009,0.185-0.024,0.157-0.157c-0.875-0.142-0.272,0.699-0.157,0.937C6.694,41.542,7.073,42.125,7.372,41.736z M9.557,43.296  c-0.477-0.112-0.569,0.16-0.937,0.156c0.044-0.355-0.038-0.586-0.312-0.624c-0.33,0.273-0.453,0.01-0.937,0  c-0.193,0.505,0.504,0.119,0.312,0.624C8.382,42.961,8.794,44.208,9.557,43.296z M9.401,42.048c0.112,0.423-0.736-0.112-0.624,0.312  c0.155,0,0.312,0,0.468,0c0.027,0.234-0.056,0.577,0.156,0.625C9.231,42.585,9.875,42.241,9.401,42.048z M15.02,41.267  c0.548,0.14,0.514-0.03,0.937,0.313C16.129,40.95,15.054,40.77,15.02,41.267z M12.835,47.043c0.046,0.307-0.211,0.31-0.312,0.468  c0.278,0.229,0.611-0.098,0.937,0.313c-0.095,0.009-0.185,0.023-0.156,0.156C14.012,47.593,13.066,47.396,12.835,47.043z   M15.02,47.667c-0.181-0.025-0.169-0.247-0.155-0.468c-0.535,0.123,0.013,0.438-0.625,0c-0.687,0.583-0.049,0.63-0.468,1.092  c0.297-0.292,0.392-0.017,0.78,0C14.598,47.973,14.975,47.986,15.02,47.667z M15.801,43.765c-0.888-0.09-1.068-0.573-0.937-1.093  c-0.313,0-0.625,0-0.937,0c-0.012,0.271,0.035,0.485,0.155,0.624c-0.939,0.363-1.569-0.028-2.653,0.313  c-0.035,0.295,0.176,0.344,0.156,0.624c0.594-0.137,1.105,0.135,0.78-0.312c0.215,0.006,0.343-0.074,0.468-0.156  c-0.137,0.501,0.515,0.214,0.468,0.624c-0.969-0.047-0.641,0.274-0.78,0.937c0.644-0.032,0.715-0.638,1.249-0.781  c0.024,0.184-0.027,0.443,0.156,0.469C14.773,44.417,14.734,43.75,15.801,43.765z M16.114,42.829  c-0.097-0.216-0.601-0.024-0.625-0.313c0.245-0.015,0.541,0.021,0.468-0.313c-0.501,0.13-0.324,0.134-0.625-0.155  c-0.001,0.206-0.273,0.143-0.313,0.312c0.678,0.162-0.306,0.459,0.157,1.093c0.385-0.021,0.752-0.023,0.937,0.156  C16.114,43.349,16.114,43.088,16.114,42.829z M18.143,43.296c-0.307-0.046-0.31,0.211-0.469,0.313  c-0.318-0.133-0.97,0.136-0.468,0.313c0.009-0.096,0.023-0.185,0.156-0.156c0.263,0.535,0.797-0.075,0.469,0.156  C17.408,43.78,18.188,43.572,18.143,43.296z M18.611,38.613c0.243,0.012,0.108-0.454,0-0.156c-0.084,0.488-0.881,0.264-0.937,0.78  c0.835-0.056,0.72-0.447,1.405,0C19.217,38.736,18.565,39.024,18.611,38.613z M20.953,40.955c-0.207-0.002-0.143-0.273-0.313-0.312  c-0.106,0.583-0.519-0.116-0.624,0.469C20.291,41.021,20.933,41.3,20.953,40.955z M21.733,45.326  c0.075,0.392-0.716-0.376-0.781,0.155C21.126,45.962,22.043,45.598,21.733,45.326z M25.636,37.521c0.387-0.203,0.647,0.458,0.78,0  c-0.79-0.079,0.229-0.444,0.156-0.781C25.953,36.693,25.829,37.142,25.636,37.521z M23.919,45.794  c-0.211-0.154-0.313-0.416-0.469-0.624c0.121-0.036,0.308-0.004,0.312-0.156c-0.208,0-0.416,0-0.624,0  c0.178,0.491-0.245,0.379-0.313,0.624c0.122,0.035,0.182,0.131,0.156,0.313C23.509,45.77,23.648,46.061,23.919,45.794z   M25.167,41.58c0.202-0.579-0.924-0.621-1.093-0.313C24.722,41.088,24.683,41.596,25.167,41.58z M25.948,42.829  c-0.123-0.458-1.217,0.211-0.781,0.312c0.064-0.266,0.201,0.033,0.468,0C25.425,42.45,26.463,43.214,25.948,42.829z M26.885,44.858  c-0.308,0.046-0.31-0.211-0.469-0.313c-0.035,0.121-0.004,0.308-0.155,0.313c-0.035-0.121-0.005-0.308-0.157-0.313  C25.689,44.962,26.717,45.393,26.885,44.858z M27.353,42.672c-0.176,0.293-0.605,0.332-0.781,0.624  c0.272-0.012,0.485,0.036,0.625,0.156C26.937,42.962,27.777,42.815,27.353,42.672z M27.977,42.048  c-0.233-0.027-0.576,0.055-0.624-0.157c0.169-0.038,0.375-0.257,0.156-0.312c-0.017,0.295-0.516,0.108-0.468,0.469  C27.524,42.107,27.647,42.579,27.977,42.048z M28.914,36.74c-0.259-0.49,0.582-0.638,0.157-0.781  c-0.044,0.321-0.417,0.312-0.625,0.469c-0.017-0.191-0.046-0.37-0.312-0.313C28.153,36.564,28.329,36.857,28.914,36.74z   M29.851,45.014c-0.424,0.112,0.111-0.737-0.313-0.625c0.241,0.657-0.807,0.025-0.78,0.469C29.211,44.985,29.508,45.6,29.851,45.014  z M31.412,38.301c-0.478,0.113-0.459-0.269-0.937-0.156c0.11,0.683-0.812,0.333-0.937,0.781c0.129,0.129,0.085,0.547,0.469,0.781  c0.117-0.388,0.794-0.604,0.312-0.937C30.604,38.534,31.193,38.604,31.412,38.301z M34.846,38.301  c0.409,0.171,1.013,0.5,1.249-0.156C35.555,38.396,35.264,37.928,34.846,38.301z M35.626,38.926  c-0.385,0.071-0.462-0.448-0.78-0.156c0.253-0.112,0.253,0.736,0,0.624c0.02-0.54-0.305-0.736-0.468-1.093  c-0.156,0.209-0.422,0.307-0.468,0.625c0.457,0.011,0.88,0.057,0.78,0.624C35.353,39.692,35.476,39.295,35.626,38.926z   M36.407,43.921c-0.207-0.002-0.143-0.274-0.313-0.313c0.026,0.432-0.24,0.536-0.469,0.313c-0.197,0.183-0.125,0.648,0.313,0.624  C35.692,43.935,36.344,44.222,36.407,43.921z M37.031,39.707c-0.089-0.598-1.028-0.44-1.093-0.313  c0.258,0.002,0.088,0.434,0.313,0.468C36.225,39.524,36.805,39.792,37.031,39.707z M37.188,38.145  c-0.381-0.396-0.333,0.329-0.937,0.156c0.114,0.426-0.31,0.314-0.313,0.625c0.456,0.044,0.537-0.038,0.313-0.313  C36.598,38.493,37.097,38.523,37.188,38.145z M39.685,38.458c-0.035-0.433-0.495-0.441-0.625-0.781  c0.05,0.362-0.025,0.599-0.156,0.781C39.202,38.75,39.187,38.365,39.685,38.458z M43.119,36.428  c0.143-0.271,0.547-0.404,0.781-0.157c0.023-0.387-0.081-0.647-0.313-0.78C43.692,35.972,42.522,35.971,43.119,36.428z   M41.871,39.082c1.077,0.374,3.182-1.282,1.092-0.78C43.206,39.071,41.578,38.778,41.871,39.082z M40.154,41.736  c0.368,0.422-0.279,0.892,0.155,1.249C40.318,42.386,40.933,42.001,40.154,41.736z M41.402,38.77  c0.282-0.268-0.048-0.614-0.469-0.625c-0.234,0.234-0.657,0.279-0.78,0.625C40.81,38.54,40.81,38.466,41.402,38.77z M42.027,41.892  c-0.377,0.064-0.34-0.286-0.781-0.156c0.024,0.184-0.026,0.443,0.156,0.468c0.035-0.121,0.004-0.308,0.156-0.312  c0.025,0.184-0.027,0.443,0.156,0.468C41.752,42.137,41.972,42.096,42.027,41.892z M42.808,41.423  c-0.312-0.293-0.247-0.566-0.781-0.312c0.007-0.167-0.074-0.397-0.156-0.157c0.061,0.223,0.187,0.263,0,0.468  C42.285,41.24,42.79,41.723,42.808,41.423z M43.119,45.014c-0.507-0.182,0.005-0.409-0.468-0.625  c0.121-0.035,0.307-0.004,0.312-0.156c-0.364,0.053-0.672,0.161-0.781,0.469C42.666,44.545,42.79,45.532,43.119,45.014z   M43.432,45.951c-0.063,0.353-0.915-0.083-0.624,0.625C43.142,46.583,43.881,46.211,43.432,45.951z M43.9,43.14  c-0.399,0.31-0.718-0.162-0.938,0.156c0.146,0.167,0.576,0.049,0.469,0.469C43.843,43.813,43.944,43.549,43.9,43.14z M47.803,36.584  c0.279,0.523,0.953-0.157,1.249,0.468c0.201-0.368-0.021-0.291,0.156-0.781c-0.542,0.324-0.726,0.036-1.093,0.469  C48.162,36.486,47.904,36.319,47.803,36.584z M47.022,38.613c0.103,0.819,0.576,0.339,0.938,0.781  c0.031-0.449-0.041-0.793-0.313-0.937c-0.076,0.184-0.166,0.354-0.313,0.468C47.317,38.736,47.288,38.556,47.022,38.613z   M46.085,42.829c-0.294,0.035-0.344-0.176-0.624-0.156c0.134,0.498-0.245,0.482-0.312,0.78c0.322,0.043,0.147,0.582,0.468,0.625  c0.377-0.362-0.244-0.418-0.312-0.781C45.489,43.065,45.895,43.054,46.085,42.829z M46.241,41.736  c0.721-0.009,1.051,0.545,1.093,0.78c0.038-0.222,0.258-0.263,0.313-0.468c-0.617,0.139-0.88-0.878-1.092-0.625  c0.484,0.2-0.443,0.2-0.469,0c-0.133,0.318,0.136,0.97,0.313,0.468C46.303,41.883,46.212,41.869,46.241,41.736z M48.114,42.516  c-0.214,0.006-0.342-0.074-0.468-0.156c0.007,0.215-0.073,0.343-0.156,0.469c0.122,0.035,0.309,0.004,0.313,0.156  c-0.376,0.063-0.339-0.285-0.781-0.156c0.007,0.215-0.074,0.343-0.156,0.468c0.271-0.012,0.485,0.036,0.624,0.156  C47.438,42.879,48.387,43.309,48.114,42.516z M49.52,46.418c-0.099,0.317-0.73,0.103-0.78,0.468  C49.045,47.345,49.996,46.704,49.52,46.418z M50.144,46.262c-0.045-0.661-0.692-0.726-0.624-0.312  c-0.562-0.042,0.04-1.239-0.624-0.78c-0.179-0.073-0.836,0.653-1.093,1.248c0.939-0.003,0.902-0.48,1.249-0.78  c0.085,0.227-0.182,0.807,0.156,0.78C49.34,45.862,49.592,46.4,50.144,46.262z M51.861,42.204c0.098,0.36,0.866,0.847,0.937,0.313  C52.599,42.3,52.061,42.42,51.861,42.204z M52.642,43.609c0.337,0.289,0.329,0.92,1.094,0.78c-0.734-0.62-1.741-1.794-2.499-1.873  c0.268,0.201,0.615,0.323,0.625,0.78c-0.268,0.062-0.4-0.231-0.469,0c0.183,0.026,0.17,0.248,0.156,0.469  C52.209,43.659,52.431,44.085,52.642,43.609z M53.891,45.326c-0.483,0.204-0.606-0.123-0.937,0.312  c0.385-0.021,0.752-0.023,0.937,0.156C53.891,45.638,53.891,45.481,53.891,45.326z M55.764,44.389  c-0.121-0.668,0.023-0.636-0.155-1.249c0.086,0.001,0.178-0.126,0-0.155c-0.165-0.016-0.707,0.465-1.093,0.155  C54.184,44.111,55.073,44.392,55.764,44.389z M55.451,47.979c-0.425-0.114-0.313,0.311-0.624,0.312  c0.145,0.272-0.005,0.838,0.468,0.781C55.185,48.468,55.097,48.457,55.451,47.979z M56.232,45.951  c-1.022-0.186-2.128,0.365-2.029,0.78c0.02-0.344,0.661-0.066,0.937-0.155c-0.009-0.27,0.12-0.401,0.312-0.469  c-0.076,0.39,0.553,0.358,0.781,0.156C56.043,46.23,56.136,46.089,56.232,45.951z M56.544,41.267  c-0.223-0.037-0.263-0.257-0.468-0.312c-0.035,0.121-0.005,0.308-0.156,0.312c0.048-0.316-0.451,0.032-0.469,0.156  C55.775,41.331,56.477,41.617,56.544,41.267z M57.013,46.575c-0.208,0-0.417,0-0.623,0C56.266,47.176,57.136,47.176,57.013,46.575z   M60.446,43.765c0.437,0.631,0.799,1.051,1.095,0.312c0.111,0.576,0.508-0.026,0.623,0.625c-0.012-0.271,0.036-0.485,0.156-0.625  c-0.442-0.026-0.65-0.286-1.092-0.312c-0.077,0.185-0.167,0.354-0.313,0.468c-0.224-0.275,0.127-0.922-0.156-0.624  c-0.009,0.096-0.022,0.185-0.156,0.156C60.604,43.678,60.477,43.588,60.446,43.765z M59.354,43.453  c0.235-0.234,0.467-0.47,0.624-0.78c-0.26,0-0.521,0-0.78,0C59.116,43.071,58.991,43.218,59.354,43.453z M59.042,44.077  c0.118,0.455,1.297,0.458,1.249-0.156C59.673,43.979,59.338,43.555,59.042,44.077z M58.574,47.979c-0.371,0.129-1.147-0.351-0.781,0  c0.184,0.233,0.394,0.441,0.625,0.625c-0.087,0-0.178,0.127,0,0.156C59.049,48.458,58.123,48.461,58.574,47.979z M61.229,46.575  c-0.226-0.346-0.382,0.196-0.47-0.157c0.177-0.188,0.445-0.282,0.313-0.78c0.639,0.091,0.814-0.583,1.092,0  c0.339-0.337-0.09-0.702-0.47-0.78c-0.3,0.393-1.146,1.49-1.56,0.78c0.356,0.043,0.587-0.038,0.624-0.312  c-0.82,0.071-2.218-0.313-1.561,0.312c-0.367,0.382-0.29-0.232-0.78-0.157c-0.038,0.275-0.269,0.356-0.625,0.313  c0.021,0.291,0.103,0.521,0.313,0.624c0.077-0.682,1.018,0.143,1.405,0.157c0.156-0.208,0.258-0.472,0.468-0.625  c0.003,0.206,0.273,0.143,0.313,0.312c0.035,0.296-0.176,0.345-0.156,0.625C60.414,46.697,61.044,46.858,61.229,46.575z   M62.32,48.604c-0.2,0.665-0.884,0.691-1.405,0.469c0.087,0.001,0.178-0.127,0-0.156c-0.009,0.095-0.022,0.185-0.156,0.156  c0,0.104,0,0.207,0,0.311c0.728,0.162,1.404-0.338,1.562,0.157C62.411,49.207,62.857,48.691,62.32,48.604z M62.789,47.824  c1.003-0.667,0.342-0.991-0.625,0.156C62.397,47.954,62.74,48.036,62.789,47.824z M63.101,50.009  c0.009-0.095,0.023-0.185,0.156-0.155c0.167,0.146,0.049,0.576,0.469,0.467C63.969,49.721,62.582,49.485,63.101,50.009z   M64.349,46.262c0.492-0.174,0.354-0.013,0.938,0C65.431,45.695,64.257,45.906,64.349,46.262z M65.755,46.575c-0.26,0-0.52,0-0.78,0  c0.009,0.268-0.121,0.4-0.313,0.468c0.001-0.157-0.126-0.187-0.157-0.313c0.088,0.001,0.179-0.125,0-0.155  c-0.154,0.208-0.421,0.307-0.468,0.625c0.308-0.047,0.31,0.209,0.468,0.312c0.172-0.349,0.768-0.274,0.938-0.625  c-0.096-0.008-0.186-0.023-0.156-0.156C65.471,46.707,65.729,46.758,65.755,46.575z M65.911,42.204  c-0.119-0.246-0.496-0.233-0.468-0.624c0.087,0,0.177-0.126,0-0.156c-0.009,0.095-0.024,0.185-0.156,0.156  c-0.036-0.121-0.006-0.308-0.156-0.313C64.771,41.578,65.777,42.412,65.911,42.204z M67.472,46.418  c-0.646,0.619-1.135-1.037-1.093-0.156c0.01-0.095,0.023-0.184,0.156-0.156c0.251,0.615-0.675,0.055-0.624,0.469  c0.175,0.033,0.243,0.173,0.312,0.312c0.581-0.307,1.073,0.114,1.249,0C67.205,46.823,67.505,46.686,67.472,46.418z M69.033,47.667  c-0.522,0.107-0.57-0.261-0.625-0.624c-0.156,0-0.311,0-0.467,0c0.192,0.378,0.5,0.644,0.622,1.092  C68.491,47.494,68.985,48.286,69.033,47.667z M72.154,42.516c-0.385,0.135-1.08-0.04-1.093,0.469  C71.587,42.989,71.888,42.77,72.154,42.516z M74.028,44.233c-0.352-0.064,0.023-0.855-0.468-0.78  c0.047,0.307-0.212,0.31-0.313,0.469c0.185,0.075,0.354,0.167,0.468,0.312c-0.121,0.036-0.308,0.004-0.312,0.156  C73.638,44.363,73.98,44.445,74.028,44.233z M75.902,56.566c-0.47-0.187-1.135-0.178-1.25-0.313  c-0.007-0.095-0.022-0.185-0.155-0.156c-0.016,0.401-0.61,0.224-0.625,0.625C74.618,56.332,75.514,56.938,75.902,56.566z   M77.774,55.785c-0.148-0.101-0.915-0.205-0.624,0c0.41-0.045,0.123,0.605,0.624,0.469C77.774,56.098,77.774,55.942,77.774,55.785z   M60.036,63.478c-0.303-0.239-0.603-0.457-0.816-0.19C59.472,63.573,59.679,63.898,60.036,63.478z M60.229,62.659  c0.117-0.181,0.257-0.239,0.396-0.294c-0.049-0.334-0.472-0.543-0.69-0.103C60.115,62.38,60.174,62.519,60.229,62.659z   M60.817,63.452c-0.119,0.168-0.306-0.039-0.434,0.076c0.185,0.222-0.152,0.098-0.309,0.166c0.342,0.239,0.684,0.478,1.024,0.716  c0.126-0.137,0.231-0.377,0.396-0.294c-0.082,0.164,0.104,0.28,0.293,0.396C61.961,63.571,60.542,64.298,60.817,63.452z   M64.884,61.723c-0.447,0.416,0.511,0.583,0.064,0.997C65.393,63.101,65.317,61.906,64.884,61.723z M71.395,64.943  c-0.117,0.18-0.256,0.237-0.396,0.294c0.15,0.358,0.422,0.2,0.678,0.663C71.978,65.513,71.333,65.289,71.395,64.943z M75.5,63.432  c-0.168,0.322-0.47-0.116-0.652,0.115c0.188,0.099-0.354,0.857,0.204,0.524c-0.072-0.061-0.138-0.125-0.039-0.218  C75.112,63.671,75.804,63.83,75.5,63.432z M83.178,48.474c-0.221,0.064-0.333,0.234-0.564,0.286c0.564,0.107,1.042,0.303,1.484,0.53  c0.177-0.058,0.385,0.075,0.512-0.251c-0.258,0.068-0.493,0.04-0.715-0.045c-0.014,0.021-0.031,0.042-0.032,0.079  c-0.163-0.022-0.24-0.129-0.298-0.256C83.432,48.721,83.303,48.606,83.178,48.474z M88.573,56.438  c-0.009,0.055-0.016,0.108-0.016,0.163c0.061-0.02,0.122-0.04,0.175-0.108C88.674,56.479,88.628,56.456,88.573,56.438z   M88.756,56.992c0.031-0.077-0.022-0.081-0.111-0.082C88.671,56.945,88.711,56.972,88.756,56.992z M87.167,47.017  c0.244,0.21,0.951,1.123,0.855,0.409c-0.365,0.234-0.268-0.537-0.46-0.703c0.468,0.216,0.535,0.503,0.808,0.754  c0.427-0.3,0.015-0.451,0.102-0.691c0.128,0.091,0.225,0.003,0.345,0.051c-0.177,0.218-0.082,0.389,0.205,0.524  c0.148-0.251,0.214-0.487,0.102-0.691c-0.761,0.323-0.406-0.734-1.113-0.588c0.315,0.243,0.366,0.533,0.154,0.87  c-0.143-0.199-0.19-0.415-0.332-0.613c-0.199,0.526-0.571-0.074-0.603-0.23C87.078,46.664,87.49,46.595,87.167,47.017z   M87.014,48.053c-0.112,0.207-0.375,0.441-0.229,0.601c0.68,0.051,1.395,0.188,1.625,0.946c0.336-0.05,0.461-0.457,0.319-0.73  c-0.537,0.401-0.347-0.201-0.641-0.447C87.616,49.029,87.189,48.218,87.014,48.053z M86.169,47.082  c0.048,0.252,0.352,0.461,0.679,0.665C87.313,47.464,86.308,46.888,86.169,47.082z M85.645,43.476  c0.057,0.547,1.38,0.799,0.894,0.626C86.13,43.974,86.107,43.225,85.645,43.476z M84.287,42.146c0.333,0.352,1.23,0.691,1.035,0.153  C84.992,42.397,84.759,41.747,84.287,42.146z M82.278,40.932c0.466,0.098,0.98,0.477,1.497,0.856c0.227-0.4,0.845-0.117,0.446-0.64  c-0.161,0.145-0.352,0.117-0.485,0.422C83.64,41.488,82.636,40.504,82.278,40.932z M82.146,47.979c0.415-0.104,0.52-0.052,0.623,0  c-0.167-0.226-0.329-0.47-0.492-0.714C82.163,47.549,81.877,47.723,82.146,47.979z M80.74,54.225  c-0.007,0.269,0.121,0.399,0.313,0.468c-0.048-0.359,0.451-0.172,0.467-0.468C81.041,54.115,81.221,54.115,80.74,54.225z   M80.428,56.566c0.392-0.091,0.675,0.611,1.093,0.937c-0.438-0.031,0.044,1.167,0,0.313c0.158-0.208,0.148-0.582,0.47-0.625  c1.115-0.464,1.883,0.182,2.498-0.78c-1.147,0.36-1.537,0.171-2.342,0.625c0.379-0.617-0.175,0.115-0.313-0.313  c0.206-0.002,0.142-0.274,0.313-0.313c0.177,0.365,1.029,0.107,1.092-0.156c-0.934-0.262-1.238,0.228-2.185,0.313  c0.136-0.322-0.405-0.701-0.47-0.313c0.087-0.001,0.177,0.126,0,0.156C80.575,56.246,80.384,56.287,80.428,56.566z M79.097,60.015  c-0.033,0.039-0.066,0.076-0.103,0.113c0.029,0.031,0.062,0.063,0.084,0.092C79.083,60.151,79.092,60.083,79.097,60.015z   M79.648,60.001c-0.049,0.001-0.081-0.015-0.121-0.021c0.034,0.106,0.063,0.203,0.077,0.296  C79.628,60.214,79.643,60.131,79.648,60.001z M79.96,59.376c0.199,0.43,1.093-0.739,0.156-0.624  C80.392,59.544,79.593,59.174,79.96,59.376z M79.805,60.313c0.245,0.249,0.836,0.044,1.093-0.155  C80.687,59.943,79.808,59.859,79.805,60.313z M79.18,57.035c-0.505-0.017-0.332-0.708-1.092-0.469  C78.073,57.006,78.827,57.478,79.18,57.035z M78.555,58.438c0.353,0.217,0.662,0.323,0.156,0.626  c0.216-0.008,0.343,0.073,0.469,0.156c0.031-0.453,0.243-0.405,0.313-1.094c-0.728-0.136,0.216,0.405-0.313,0.468  c-0.001-0.205-0.272-0.142-0.313-0.312c0.203-0.553,0.99,0.071,0.938-0.468c-0.13,0.076-0.613-0.558-0.938-0.156  C79.52,58.074,78.41,58.016,78.555,58.438z M79.231,61.09c-0.065-0.03-0.139-0.059-0.216-0.087c-0.013,0.17-0.107,0.26-0.139,0.414  c0.03,0.021,0.055,0.032,0.087,0.057C78.927,61.198,79.055,61.237,79.231,61.09z M84.029,61.586  c-0.028,0.087-0.105,0.184-0.192,0.281c0.011,0.002,0.016,0.004,0.025,0.008c-0.076,0.166-0.182,0.312-0.308,0.45  c0.005,0.042,0.02,0.082,0.064,0.118C83.753,62.219,84.604,61.919,84.029,61.586z M87.687,62.62  c-0.167-0.119,0.04-0.306-0.078-0.436c-0.196,0.363-0.47,0.298-0.78,0.026c-0.164,0.216-0.248,0.418-0.229,0.601  c-0.179-0.117-0.238-0.257-0.294-0.396c-0.166,0.326-0.363,0.478-0.575,0.55c0.436,0.062,0.354,0.346,0.602,0.231  C86.297,62.752,87.293,62.746,87.687,62.62z M94.451,62.207c-0.545,0.207-1.154-0.103-1.022-0.716  c-0.443-0.184-0.069,0.358-0.358,0.513c-0.503-0.14-0.297-0.192-0.768-0.538c-0.285-0.463,0.555,0.273,0.69,0.102  c-0.089-0.795-0.768-0.38-1.368-0.766c-0.794-1.171-2.147-2.742-2.956-3.578c-0.12,0.013-0.237,0.029-0.278,0.123  c0.082,0.126,0.162,0.254,0.156,0.469c0.139-0.069,0.278-0.137,0.312-0.313c0.65,0.61-1.068,0.171-0.624,1.092  c-0.991,0.049-1.194,0.188-1.719,0.47c0.195,0.476,0.12,0.607-0.155,0.937c-0.08-0.438-1.426-0.276-1.716-1.249  c0.31,0.002,0.197,0.426,0.623,0.313c0.261-0.156,0.11-0.723,0.469-0.781c-0.692-0.029-0.145-0.757-1.092-0.937  c-0.424,0.833-0.552,0.067-1.094,0.78c-0.158-0.101-0.16-0.358-0.469-0.312c-0.021-0.28,0.191-0.33,0.156-0.625  c-0.274,0.038-0.354,0.269-0.313,0.625c-0.317-0.047-0.415-0.313-0.623-0.469c-0.759-0.134-0.238,1.012-0.938,0.937  c-0.042,0.252,0.148,0.269,0.156,0.469c0.187-0.837,0.912,0.618,0.937-0.157c0.438,0.157,0.017,0.723-0.154,0.781  c0.036,0.402,0.268-0.214,0.623,0c0,0.417,0.492,0.339,0.469,0.781c-0.847-0.649-0.048,0.831-0.625,0.624  c0.049,0.211,0.392,0.129,0.625,0.156c-0.002-0.312-0.426-0.199-0.313-0.625c0.656,0.124,0.568,0.531,0.495,0.9  c0.51,0.216,1.091,0.551,1.154-0.089c0.316,0.241-0.031,0.688-0.319,0.73c0.084,0.06,0.171,0.119,0.256,0.179  c0.132-0.47,0.88-0.244,1.316-0.794c0.437,0.877,1.243,0.364,1.932,0.779c0.158-0.518-1.463-0.02-0.717-0.883  c0.389,0.685,1.453,0.366,2.073,0.307c-0.156,0.454,0.609,0.627,0.945,0.28c0.059,0.16,0.12,0.314,0.256,0.18  c-0.229,0.828,0.814,0.15,0.808,0.753c0.423-0.137,0.816-0.443,1.341-0.013c0.177-0.218,0.032-0.38,0.23-0.602  c0.229,0.956,0.099-0.213,0.856,0.41c-0.295,0.015-0.521,0.426-0.868,0.153c-0.216,0.262,0.413,0.376,0.55,0.575  C93.445,62.434,94.066,62.795,94.451,62.207z M94.937,61.785c-0.116-0.198-1.106-1.101-1.419-0.421  C94.008,61.599,94.465,61.65,94.937,61.785z M95.678,59.636c-0.163-0.133-0.538-0.732-0.384-0.269  c0.072,0.062,0.138,0.125,0.038,0.218c-0.325-0.366-0.529-0.042-0.857-0.409c-0.11,0.504-0.893,0.346-0.664,0.679  c0.159-0.156,0.383,0.051,0.563,0.012c0.174,0.52-0.356,0.468-0.063,0.907c0.203-0.181,0.145,0.143,0.384,0.27  c0.036-0.529,0.001-1.047-0.054-1.56C95.028,59.761,95.374,59.822,95.678,59.636z M49.979,49.986  c0.007,0.011,0.01,0.017,0.018,0.027C50.039,50.003,50.021,49.994,49.979,49.986z"/>
</g>
</svg>
