<svg xmlns="http://www.w3.org/2000/svg" xmlns:xlink="http://www.w3.org/1999/xlink" version="1.1" x="0px" y="0px" viewBox="0 30 100 80" xml:space="preserve">

<g fill="white">
  <path d="M39.508,44.293c-0.089,0.181-0.29,0.253-0.543,0.271c0.056-0.327-0.249-0.295-0.135-0.68  C39.293,43.784,39.001,44.437,39.508,44.293z M29.185,47.96c0.388,0.026,0.741,0.017,0.679-0.407  C29.547,47.598,29.278,47.691,29.185,47.96z M26.876,50.27c0.253-0.007,0.287,0.104,0.135,0.271c0.276,0.16,0.555-0.071,0.272,0.409  c0.433-0.207,1.398-0.588,1.222-0.952C27.955,50.601,27.098,49.772,26.876,50.27z M25.653,51.221  c0.485-0.015,0.933-0.063,1.087-0.408c-0.152-0.029-0.211-0.151-0.272-0.272c0.16-0.021,0.386,0.024,0.408-0.135  c-0.227,0-0.454,0-0.68,0C26.661,51.088,25.702,50.699,25.653,51.221z M6.908,63.038c0.031-0.484-0.195-0.711-0.679-0.68  C6.285,62.756,6.693,62.799,6.908,63.038z M16.552,59.777c0.017-0.301,0.576-0.058,0.815-0.136  c-0.006-0.188,0.063-0.298,0.135-0.407c-0.298-0.155-0.451-0.455-0.815-0.544C17.039,59.097,16.342,59.598,16.552,59.777z   M33.939,41.033c-0.3,0.087,0.619-0.71-0.136-0.679c0.413,0.476-0.444,0.573-0.543,0.136c-0.253,0.018-0.454,0.09-0.542,0.271  C33.302,40.591,33.761,41.245,33.939,41.033z M42.089,42.662c-0.524,0.156-0.829,0.529-1.087,0.952  c-0.159,0.021-0.385-0.024-0.408,0.136c0.672-0.073,1.238,0.069,1.358-0.545c0.317,0.101,0.766,0.096,1.087-0.135  C42.532,42.751,41.709,43.347,42.089,42.662z M41.002,43.07c0,0.075,0.11,0.154,0.136,0c-0.106-0.031-0.158-0.114-0.136-0.272  c-0.34-0.022-0.329,0.305-0.543,0.407C40.736,43.478,40.821,43.242,41.002,43.07z M34.618,45.788  c0.543-0.062-0.122,0.574-0.543,0.407c0.119-0.24,0.455-0.421,0-0.543c0.007,0.529-0.248,0.895-0.407,0.951  c0.418-0.101,0.166,0.469,0.679,0.271c-0.388-0.518,0.491-0.528,0.679-0.407c-0.134-0.51,0.668-0.296,0.272-0.678  c0.161-0.022,0.386,0.022,0.408-0.136C35.38,45.734,34.719,45.48,34.618,45.788z M30.814,47.689  c-0.504-0.086-1.347,0.272-0.679,0.543c-0.079-0.598,1.055-0.147,0.542,0.135c0.084,0.008,0.162,0.021,0.136,0.136  c0.234,0.007,0.349-0.104,0.408-0.271C30.864,48.273,30.776,48.044,30.814,47.689z M6.093,63.174  c-0.333,0.164-0.484-0.208-1.222-0.136c-0.04,0.16-0.548,0.513-0.136,0.678c0.068-0.835,1.15-0.052,1.494-0.407  c0.031,0.24-0.136,0.682,0.271,0.544C6.528,63.463,6.518,63.112,6.093,63.174z M4.871,66.977c0.248-0.205,0.416-0.488,0.407-0.95  C5.027,66.006,4.755,66.769,4.871,66.977z M5.278,63.716c0.837-0.068,0.124,0.629-0.136,0.68c0.233-0.007,0.348,0.104,0.407,0.272  c-0.197,0.074-0.702-0.158-0.679,0.135c0.299,0.122,0.583-0.018,1.087,0.137c-0.299-0.669,0.272-0.034,0.271-0.814  C6.05,63.858,5.525,63.086,5.278,63.716z M63.385,51.766c0.002,0.011,0.003,0.016,0.005,0.027  C63.427,51.799,63.415,51.786,63.385,51.766z M95.121,56.02c0.037,0.406,0.223,0.849,0.088,1.211  c-0.295,0.132-0.051-0.391-0.16-0.535c-0.304,0.567-0.268,0.343-0.605,0.042c-0.204,0.113-0.251,0.267-0.212,0.442  c0.716,0.279,0.278,0.353,0.857,0.913c-0.425-0.128-0.286,0.834-0.7,0.417c-0.127,0.098,0.028,0.27,0.091,0.418  c0.12,0.309,0.493-0.381,0.558,0.142c-0.168,0.146-0.267,0.01-0.418,0.092c0.045,0.078,0.093,0.155,0.138,0.234  c0.687-0.214,0.117,1.774,0.408,2.284c-0.111,0.438-0.853,0.253-0.563,0.65c-0.18,0.058-0.27-0.235-0.393-0.397  c-0.225,0.252,0.187,0.927-0.493,0.766c0.599,0.585,0.461,1.109,0.599,1.54c-0.635,0.169-0.16,0.619-0.797,0.789  c-0.04-0.44,0.382-0.276,0.307-0.814c-0.43,0.08-0.436-0.675-0.974-0.842c0.018,0.453,0.274,0.373,0.438,1.004  c-0.687,0.31-0.146,0.318-0.375,0.694c-0.655-0.286,0.334-1.009-0.158-1.328c-0.55,0.536-0.173,1.202-0.869,1.463  c-0.027-0.7-1.107-0.204-1.464-0.867c-1.986,0.779-3.412-1.788-5.653-1.541c-1.224-1.413-4.634-1.374-5.459-3.076  c-0.346-0.073-0.68-0.189-0.952-0.541c-0.059,0.15-0.051,0.316-0.026,0.489c-1.337-0.272-1.371-0.291-2.931-0.946  c0.347-0.195,0.52,0.293,0.908-0.064c-0.395-0.022-1.145-0.679-1.351-0.146c-0.267,0.014-0.474-0.212-0.65-0.563  c0.217-0.193,0.358-0.104,0.538-0.159c-1.173-0.038-2.279-1.205-1.993-2.292c-0.704-0.459-0.151,0.627-0.609,0.836  c-0.069-0.119-0.139-0.233-0.207-0.352c0.113,0.655-0.332,0.457-1.006,0.438c-0.051-0.203,0.177-0.041,0.352-0.207  c-0.188-0.035-0.293-0.408-0.56-0.144c0.166-0.298,0.244-0.183,0.447-0.579c-0.12-0.31-0.365-0.129-0.464-0.515  c-0.188,0.149-0.146,0.358,0.042,0.604c-0.213,0.195-0.355,0.104-0.536,0.162c0.022-0.227,0.174-0.42,0.26-0.629  c-0.381-0.117-0.642,0.131-1.211,0.088c-0.239-0.748-0.806-0.213-1.044-0.96c0.117-0.42,0.251-0.289,0.445-0.58  c-0.617-0.296-1.067-0.782-1.321-1.427c-0.546,0.092,0.286,0.535-0.259,0.628c0.233,0.245,0.599-0.02,0.765,0.491  c-0.154,0.093-0.31,0.186-0.466,0.278c-0.073-0.185,0.324-0.249,0.212-0.44c-0.324,0.061-0.463,0.197-0.814-0.309  c-0.348,0.329-0.596,0.266-0.744-0.189c-0.118,0.469-0.538,0.14-0.888,0.368c0.073-0.329-0.445-0.532-0.671-0.863  c0.196-0.125,0.354-0.095,0.489,0.025c0.256-0.659-0.551-0.386-0.252-0.958c-0.15-0.058-0.318-0.049-0.489-0.023  c-0.049-0.431-0.341-0.92-0.693-1.17c-0.06,0.348,0.306,0.806,0.39,1.191c-0.252,0.086-0.327-0.53-0.674-0.074  c0.04,0.207-0.03,0.209,0.038,0.578c-0.136-0.098-0.83-0.459-0.923-1.002c-0.36,0.107-0.081,0.375-0.141,0.559  c-0.087,0.08-0.138,0.02-0.187-0.047c-0.037-0.113-0.111-0.083-0.187-0.049c0.277-0.621,0.341-1.299,0.964-1.834  c-0.088-0.171-0.177-0.343-0.325-0.281c-0.142-0.354,0.364-0.225,0.372,0.094c-0.134-0.859,0.583-0.32,0.121-0.86  c0.458,0.215,0.873-0.415,0.54-0.952c0.837-0.043,1.533,0.465,2.209,1.057c0.618-0.409,1.18,0.303,1.999,0.709  c-0.375-0.205-0.473-0.064-0.53,0.158c-0.002,0.001-0.003,0.001-0.006,0.002c0.001,0.001,0.004,0.004,0.005,0.006  c-0.054,0.21-0.074,0.491-0.264,0.622c0.069,0.034,0.138,0.071,0.2,0.127c0.081-0.187,0.167-0.368,0.235-0.567  c-0.066-0.062-0.128-0.123-0.172-0.183c0.001-0.003,0.001-0.006,0.001-0.008c0.415-0.183,0.475-0.021,0.515,0.137  c0.073,0,0.146,0,0.22,0c-0.071,0.069-0.104,0.134-0.119,0.197c0.066,0.034,0.186,0.003,0.427-0.163  c0.263,0.73,0.402,0.729,0.854,1.705c0.171-0.254-0.014-0.598-0.252-0.957c0.373-0.159,0.899,0.247,0.836,0.609  c0.259-0.1,0.352-0.241,0.212-0.442c0.334,0.371,0.222,1.468,1.109,1.869c0.092-0.273-0.219-0.649-0.065-0.908  c-0.367,0.188-0.547,0.059-0.464-0.514c0.189-0.159,0.305-0.032,0.187,0.046c0.1,0.126,0.271-0.028,0.419-0.091  c0.46,0.416-0.027,0.588,0.067,0.908c0.44-0.08,0.494-0.182,1.072-0.32c0.369,0.439,1.374,1.549,2.325,0.99  c0.34,0.346,0.259,0.445,0.718,0.678c-0.074-0.35,0.131-0.627,0.237-0.93c0.252,0.045,0.531,0.289,0.464,0.514  c-0.16-0.02-0.302-0.107-0.441-0.211c-0.212,0.242,0.343,0.682,0.438,1.004c0.073-0.146-0.039-0.342,0.211-0.442  c0.443,0.376,0.488,0.835,0.949,1.331c-0.266-0.681-0.078-0.904-0.391-1.189c0.392-0.027,0.511,0.025,0.58,0.447  c-0.01-1.092,1.835,0.939,2.026,0.219c0.316-0.152-0.041,0.295,0.277,0.467c-0.18,0.05-0.306-0.096-0.49-0.025  c-0.029,0.262,0.457,0.164,0.044,0.605c0.309,0.259,0.211-0.355,0.536-0.16c0.396,0.777,0.644,0.529,1.136,1.379  c0.069-0.229,0.156-0.154,0.351-0.207c-0.361-0.413-1.109-0.896-1.135-1.381c0.148-0.062,0.225,0.154,0.325,0.283  c0.444-0.277-0.045,0.46,0.649,0.561c0.002-0.276-0.13-1.021-0.486-0.816c0.35-0.638,0.733,0.238,0.837,0.609  c0.109-0.204,0.266-0.396,0.073-0.676c0.183-0.072,0.247,0.324,0.44,0.212c-0.132,0.474-0.003,0.795-0.354,0.999  c0.533,0.498,1.202,0.467,1.814,0.661c-0.028,0.355-0.336,0.085-0.516,0.463c0.309,0.26,0.211-0.354,0.536-0.16  c0.093,0.156,0.186,0.313,0.278,0.468c-0.174,0.034-0.328-0.007-0.442-0.212c-0.109,0.104,0.059,0.279-0.096,0.374  c0.638,0.09,0.772,0.19,1.352,0.145c0.363,0.347,0.754,1.015,1.069,0.47c0.164,0.305-0.272,0.535-0.514,0.465  c0.045,0.077,0.091,0.156,0.138,0.233c0.272-0.326,0.785,0.122,1.328-0.157c0.031,0.853,0.855,0.735,1.253,1.312  c0.312-0.354-1.154-0.541-0.253-0.958c0.038,0.409,0.396,0.616,0.789,0.757c0.011,0,0.02-0.005,0.033-0.005  c0.065-1.061-1.301-0.691-1.221-1.767c-0.14,0.088-0.141,0.312-0.407,0.271c0.463-0.308-0.621-0.525-0.138-0.814  c-0.054-0.263-0.621-0.013-0.407-0.542c-0.66,0.208-0.512-0.395-0.949-0.408c0.082-0.121,0.162-0.243,0-0.272  c0.042-0.185,0.34-0.112,0.542-0.135c-0.037-0.125-0.602-0.361-0.542-0.136c-0.282-0.076,0.183-0.525,0.542-0.408  c-0.152-0.62-0.448-0.174-0.68-0.95c-0.629,0.294-0.683,0.205-1.358,0c-0.163-0.179-0.052-0.215,0-0.407  c-0.283,0.297-0.388-0.067-0.814,0c0.092-0.817-0.949-0.5-0.815-1.359c-0.183,0.09-0.253,0.291-0.271,0.543  c0.047-0.744-0.465-0.425-0.543-1.221c-1.43-0.345-1.325-1.386-2.581-1.903c0.014-1.089-2.701-1.563-1.901-2.717  c-0.033-0.147-0.27-0.091-0.272-0.271c-0.167,0.076,0.102,0.526-0.542,0.407c-0.013-0.37,0.225-0.274,0-0.543  c-0.447,0.23-1.501-0.591-1.225-1.085c-0.396-0.317-1.031-0.584-1.222-0.136c-0.354-0.415-0.757-0.784-1.493-0.814  c0.182-0.386,0.576-0.146,1.086-0.409c-0.457-0.404-1.005,0.257-1.493,0.272c0.598-0.42-0.377-0.614-0.272-0.272  c-0.47,0.017-0.198-0.706-0.542-0.814c-0.133,0.004-0.107,0.166-0.138,0.271c-2.102-1.189-4.25-1.793-6.654-2.445  c-0.203,0.059,0.053,0.174,0,0.407c-0.457-0.335-1.107,0.319-1.223-0.407c0.196,0.075,0.702-0.159,0.679,0.136  c0.039-0.204,0.182-0.243,0.408-0.543c0.006-0.75-0.985,0.139-0.815,0.136c-0.645,0.01,0.343-0.005-0.136-0.408  c-0.243-0.203-1.24,0.453-1.223-0.271c-0.203,0.126,0.146,0.612-0.271,0.136c-0.428,0.19,0.187,0.67-0.137,0.814  c-0.206,0.225,0.005-0.321-0.136-0.679c-0.227,0-0.452,0-0.679,0c-0.127,0.372-0.678,0.318-0.951,0.543  c-0.238-0.032-0.31-0.233-0.271-0.543c0.213,0.059,0.115,0.428,0.542,0.272c0.239-0.124,0.249-0.476,0.408-0.679  c-0.358-0.041-0.446,0.188-0.408,0.543c-0.525,0.12-0.222-0.592-0.814-0.407c0.036,0.279-0.31,0.115-0.407,0.543  c-0.11-0.025-0.136-0.136-0.271-0.136c0.024-0.115-0.054-0.127-0.136-0.136c0.549-0.639-1.969-0.519-1.902-0.135  c-0.136,0.323-0.398-0.052-0.364-0.275c0.038-0.037,0.071-0.079,0.094-0.132c-0.061,0.021-0.085,0.073-0.094,0.132  c-0.215,0.208-0.64,0.207-0.723,0.546c-0.352-0.448-0.644,0.478-0.815-0.136c-0.491,0.247,0.24,0.375,0.137,0.679  c-0.36-0.118-0.932-0.14-0.814,0.136c-0.06,0.201-0.174-0.055-0.408,0c0.287-0.371,0.218-0.601-0.136-0.951  c-0.09,0.832-0.953-0.345-1.223,0.543c0.123,0.396,0.5,0.038,0.544,0.271c-0.04,0.457-1.09-0.146-1.087-0.271  c-0.195,0.076-0.332,0.211-0.407,0.407c0.06-0.47-0.406-0.275-0.679-0.68c-0.157,0.044-0.467,0.593-0.136,0.68  c-0.249,0.62-0.294-0.755-0.543-0.136c0.018-0.3-1.302-0.368-0.543-0.543c0.022-0.294-0.482-0.062-0.679-0.136  c-1.104,1.146-2.114,1.195-3.803,1.63c0.015-0.812-0.37-0.696-0.815-0.814c-0.022-0.295,0.482-0.062,0.68-0.136  c-0.367-0.344-0.527-0.106-0.951-0.271c0.291,0.207,0.057,0.938,0.678,0.814c0.011,0.215-0.065,0.518,0.136,0.543  c-0.049,0.192-1.198-0.187-0.951,0.678c-0.479-0.015-0.038-0.196-0.271-0.543c-0.28,0.282-0.689,0-0.679-0.407  c-0.363,0.17-0.887,0.466-0.951-0.135c-0.23,0.355-0.81,0.465-1.766,0.407c-0.041,0.358,0.284,0.35,0.543,0.407  c-0.126,0.329-0.352,0.555-0.68,0.68c0.26-0.604-0.824-0.246-0.136-0.543c-0.379-0.138-0.812-0.011-1.087,0.407  c0.231,0.049,0.256-0.106,0.272-0.272c0.244-0.017,0.286,0.167,0.543,0.136c-0.083,0.121-0.165,0.243,0,0.272  c-0.115,0.397-0.438-0.082-0.68,0c-0.12,0.061-0.242,0.12-0.271,0.271c0.055,0.263,0.622,0.013,0.407,0.543  c-0.913-0.17-1.359-0.05-2.173,0.136c-0.022,0.42,0.32,0.768,0,1.087c-0.636-0.024-0.452-0.35-1.087-0.136  c0.3-0.51-0.643-0.662,0-0.678c0.018-0.244-0.167-0.288-0.136-0.543c-0.226,0-0.452,0-0.679,0c-0.093,0.364,0.282,0.263,0.407,0.407  c-0.115,0.399-0.341-0.177-0.679,0c0.162,0.291,0.588,0.317,0.815,0.543c0.523,0.08-0.858,0.162-0.679-0.272  c-0.293,0.202,0.148,0.383-0.272,0.543c-0.374-0.168-0.209-0.395-0.136-0.678c-0.269-0.173-0.528,0.08-0.407-0.68  c-0.552,0.417-0.272,1.275-0.543,1.358c0.02,0.298,0.342,0.292,0.679,0.272c-0.371,0.677-1.055,0.205-1.901,0.407  c0.18-0.415,0.682-0.585,1.086-0.407c0.066-0.43-0.245-0.48-0.136-0.951c-0.109,0.072-0.22,0.14-0.407,0.135  c0.058,0.213,0.427,0.117,0.272,0.543c-0.895,0.26-1.241,0.668-1.766,0.68c-0.249-0.219,0.096-0.431-0.272-0.68  c-0.427,0.189,0.188,0.67-0.135,0.814c-0.251-0.02-0.083-0.459-0.272-0.542c-0.27,0.226-0.172-0.013-0.543,0  c0.242,0.77,0.938,0.414,1.223,0.814c0.797-0.242,1.421-0.056,1.901-0.407c0.739,0.831-0.667,0.629-0.679,1.358  c-0.257-0.014-0.095-0.45-0.407-0.407c-0.185,0.042-0.113,0.34-0.136,0.543c-0.502-0.091-0.958-0.309-1.359-0.136  c-0.242-0.365,0.599-0.263,0.136-0.407c0.646,0.004,1.339,0.108,2.038-0.407c-1.112-0.157-3.013,0.01-3.667,0.814  c0.307,0.209,0.307,0.334,0,0.543c0.321,0.068,0.602,0.158,0,0.407c0.151,0.341,1.427,0.279,1.494-0.271  c0.425-0.042-0.345,0.392,0.136,0.407c-0.51,0.049-1.105,0.527-1.493,0.271c-0.101,0.124-0.004,0.546-0.136,0.952  c-0.192-0.013-0.385-0.022-0.407,0.135c-0.36-0.108,0.304-0.639-0.272-0.678c-0.232-0.007-0.353,0.1-0.408,0.271  c0.1,0.128,0.247,0.207,0.408,0.272c-0.247,0.492-0.375-0.24-0.68-0.136c0.154-0.427-0.039-0.359,0.136-0.68  c0.418,0.096,0.261,0.096,0.679,0c-0.204-0.249-0.567-0.338-0.679-0.679c-0.213,0.456-0.33,0.456-0.543,0  c-0.374,0.122,0.316,0.552-0.407,0.408c-0.095,0.457,0.279,0.445,0.407,0.678c-0.055,0.338-0.526,0.009-0.407-0.271  c-0.416-0.098-0.4,0.235-0.815,0.136c0.234,0.128,0.222,0.501,0.679,0.407c0.144,0.506-0.458,0.267-0.543,0.543  c-0.241-0.1-0.02-0.247,0-0.407c-0.161,0.156-0.48,0.153-0.815,0.135c0.538,0.35,0.11,0.123,0.408,0.816  c-0.158-0.022-0.242,0.03-0.272,0.136c-0.262-0.253-0.107-0.249-0.543-0.136c0.447,0.162,0.116,0.72,0,1.087  c-0.371,0.011-0.273-0.229-0.543,0c-0.053,0.324,0.619-0.076,0.408,0.405c-0.11-0.115-0.372-0.08-0.408-0.27  c-0.201,0.114-0.196,0.435-0.271,0.679c-0.246-0.314-0.139-0.813,0-1.088c-0.056,0.109,0.728,0.152,0.271-0.271  c-1.062-0.135-0.722,0.985-1.358,0.95c0,0.183,0,0.364,0,0.545c0.484-0.345,0.311-0.071,0.815,0.136  c0.006,0.201-0.807,0.197-0.135,0.271c-0.261,0.512-0.521,0.314-0.952,0.135c-0.068,0.321-0.158,0.603-0.407,0  c-0.378,0.695-0.888,0.722-1.766,1.088c0.141,0.402,0.913,0.173,0.951,0.679c-0.276,0.273-0.266-0.06-0.542-0.136  c-0.012,0.191-0.023,0.385,0.135,0.408c-0.315-0.019-0.435,0.178-0.68-0.137c-0.175,0.199-0.203,0.746,0.136,0.679  c-0.124,0.238-0.252,0.474-0.679,0.408c0.021-0.159-0.03-0.243-0.136-0.272c0.015-0.256,0.449-0.094,0.407-0.406  c-0.115-0.203-0.437-0.197-0.679-0.271c0.1,0.126,0.247,0.205,0.408,0.271c-0.301,0.158-0.996,0.354-1.223,0.951  c0.353,0.547,0.638-0.467,0.951,0c-0.174,0.233-0.646,0.167-0.679,0.542c0.042,0.186,0.34,0.112,0.542,0.137  c-0.02,0.297-0.342,0.292-0.679,0.272c0.172,0.482-0.345,0.981-0.815,1.222c0.071-0.11,0.142-0.221,0.136-0.407  c-0.354,0.101-0.817,0.501-1.223,0.136c-0.06,0.528-0.646,0.531-1.086,0.679c0.01,0.262,0.633-0.235,0.272,0.272  c0.157,0.021,0.241-0.031,0.271-0.137c0.417,0.169-0.571,0.532,0.136,0.68c-1.14,0.838-1.778,0.427-2.716,1.765  c0.677,0.258-0.08,0.377,0.407,0.679c0.054,0.327-0.619-0.074-0.407,0.408c-0.22,0.038-0.234-0.128-0.408-0.136  c0.133,0.417-0.589,0.633-0.951,0.95c0.034,0.149,0.271,0.093,0.272,0.272c0.139-0.133,0.274-0.27,0.407-0.408  c0.231,0.088,0.085,0.313-0.136,0.272c0.088,0.138,0.313,0.141,0.272,0.407c-0.161,0.155-0.48,0.154-0.815,0.136  c0.291,0.728-0.528,0.986-0.408,1.631c-0.392-0.063-0.321-0.585-0.679-0.68c-0.053-0.326,0.619,0.075,0.408-0.407  c0.239,0.341,0.224,0.095,0.542,0.271c0.024-0.34-0.304-0.328-0.407-0.542c-0.464,0.124-0.576,0.602-1.222,0.542  c0.094,0.109,0.211,0.374,0,0.409c0.133,0.138,0.268,0.273,0.407,0.407c-0.845,0.282-1.238,1.265-1.494,2.172  C8.97,68.13,8.776,67.87,8.402,67.792c0.56-0.296-0.156-0.317-0.135-0.815c-0.193-0.011-0.385-0.022-0.408,0.135  c0.169-0.295-0.122-0.708-0.815-0.814c0.123-0.151,0.304,0.01,0.543-0.271c-0.059-0.202-0.174,0.053-0.407,0  c0.151-0.168,0.118-0.28-0.136-0.271c0.017-0.301,0.576-0.059,0.815-0.136c-0.209-0.285-0.808-0.05-0.271-0.409  c-0.124-0.1-0.545-0.004-0.951-0.135c0.448-0.218,0.077-0.411,0.135-0.95c0.371,0.011,0.274-0.228,0.543,0  c-0.185,0.398-0.368,0.459,0,0.814c0.551-0.519-0.584-1.611,0.543-2.311c-0.833-0.101-0.548-0.545-1.222-0.678  c0.083-0.121,0.164-0.243,0-0.272c0.28-0.07,0.438-0.212,0.271-0.814c-0.297,0.074-0.588,0.848-0.408,0.95  c-0.04,0.48-0.367-0.479-0.407,0c-0.331-0.255,0.266-0.492-0.407-0.272c0.121-0.581,0.555-0.446,0.136-0.95  C6.258,60.473,6.008,61.04,6.365,61c0.238-0.033,0.31-0.234,0.271-0.543c0.223,0.508,0.826,0.221,0.815-0.272  c0.195,0.301,0.332-0.17,0.407,0.136c0.023,0.537-0.208-0.043-0.407,0.271c0.224-0.1,1.938,0.148,0.951,0.545  c0.311,0.328,0.481,0.163,0.951,0.136c0.127-0.101,0.206-0.248,0.272-0.408c-0.059-0.167-0.174-0.278-0.407-0.272  c-0.479,0.041,0.479,0.369,0,0.408c-0.05,0.269-0.11-0.589-0.815-0.408c0.277-0.146,0.71-0.494,0.951-0.271  c-0.072-0.107-0.142-0.22-0.135-0.407c-0.365-0.094-0.263,0.281-0.408,0.407c-0.35-0.011-0.143-0.581-0.679-0.407  c0.381-0.372,0.154-0.508,0.679-0.679c-0.055-0.262-0.526-0.107-0.407-0.544c0.497-0.029,0.521-0.187,0.951,0  c-0.135-0.642-0.707-0.01-0.815-0.68c0.231-0.049,0.256,0.106,0.271,0.272c0.138-0.088,0.141-0.312,0.408-0.272  c0-0.315,0-0.633,0-0.95c0.925,0.49,0.975-0.539,1.494-0.543c-0.219-0.398-0.43-0.055-0.679-0.271  c0.432-0.281,0.616-0.193,0.271-0.679c0.297-0.087,0.433,0.385,0.408-0.136c0.458,0.122,0.017,0.303,0.272,0.542  c0.355-0.597,1.121-0.49,0.543-1.493c0.158,0.023,0.241-0.031,0.271-0.136c0.315,0.038,0.313,0.362,0.136,0.544  c0.6,0.027,0.599-0.543,1.087-0.273c-0.033-0.238-0.234-0.311-0.543-0.271c-0.282-0.321,0.698-0.003,0.951,0  c-0.115-0.294-0.334-0.48-0.815-0.407c-0.13-0.254,0.407-0.455,0-0.545c0.066-0.432,0.589,0.865,0.68,0  c0.305,0.586,0.544,0.173,0.951,0.137c-0.118-0.205-0.204,0.037-0.543-0.137c0.034-0.146,0.271-0.092,0.272-0.271  c-0.166-0.191-0.519-0.307-0.679-0.135c-0.066-0.221,0.366-0.252,0.815-0.408c-0.074-0.197,0.158-0.702-0.136-0.678  c0.586,0.086,0.481-0.385,1.494-0.273c0.322-0.39,0.189-0.62,0-0.95c0.501-0.085,0.568,0.605,0.68-0.136  c0.311,0.087,0.819,0.27,1.086,0c0.005-0.202-0.807-0.196-0.136-0.271c-0.042-0.321-0.472-0.252-0.408-0.68  c0.577-0.028,1.21,0.027,1.358-0.543c0.196,0.076,0.332,0.212,0.408,0.407c0.11-0.782,0.182-0.418,0.543-0.95  c-0.059-0.203-0.173,0.053-0.407,0c0.426-0.671,1.655,0.331,1.766-0.814c-0.037-0.124-0.602-0.361-0.543-0.136  c-0.424-0.219,0.279-0.43,0.272-0.68c0.338,0.021,0.04,0.46,0,0.543c0.444-0.099,0.599-0.487,0.815-0.814  c0.472-0.048,0.569,0.637,0.407,0.814c0.272,0,0.543,0,0.815,0c-0.238-0.36-0.281-0.138-0.679-0.407  c-0.065-0.427,0.193-0.531,0.272-0.814c1.151-0.133,1.352-0.479,2.444-0.272c0.147-0.034,0.092-0.27,0.272-0.271  c-0.088-0.139-0.313-0.141-0.272-0.407c0.11,0.025,0.136,0.135,0.272,0.135c0.186-0.189,0.292-0.67,0.136-0.814  c-0.245-0.017-0.287,0.166-0.543,0.136c0.071,0.109,0.142,0.22,0.135,0.407c-0.637-0.261,0.221-0.521-0.135-0.951  c0.616,0.309,0.317,0.13,0.814-0.136c-0.022,0.159,0.03,0.242,0.136,0.272c-0.004,0.132-0.167,0.104-0.272,0.135  c0.026,0.109,0.136,0.135,0.136,0.272c0.239-0.034,0.31-0.234,0.271-0.543c0.844-0.004,2.48-0.713,2.309-0.136  c0.949-0.293,1.055-0.74,1.63-1.494c-0.268,0.534,0.331,0.413,0.679,0.951c0.135-0.104,0.233-0.645-0.407-0.543  c0.468-0.257,1.002-0.446,1.086-1.087c0.42-0.034,0.768-0.137,1.087-0.271c-0.048-0.213-0.239,0.118-0.271-0.136  c0.438-0.476,1.092-0.055,1.629-0.543c-0.072,0.11-0.142,0.221-0.135,0.407c0.507,0.146,0.387-0.337,0.814-0.271  c-0.256,0.362,0.167,0.146,0.543,0.407c0.11-0.025,0.136-0.136,0.272-0.136c-0.07-0.595-0.042-0.445-0.136-0.95  c0.801,0.145,1.202-0.339,1.63,0.272c-0.146-0.48,0.058-0.187,0.68-0.543c-0.291-0.139-1.102-0.056-1.766,0c0-0.181,0-0.362,0-0.543  c0.376-0.024,0.466,0.208,0.271,0.407c0.436-0.261,0.686,0.08,1.223-0.136c-0.002-0.405-1.006,0.192-0.814-0.407  c0.589,0.196,1.007-0.245,1.63,0.136c0.182-0.788,1.567-0.643,2.309-1.223c0.263,0.011-0.287,0.581,0.407,0.407  c-0.072-0.108-0.142-0.221-0.136-0.407c0.127,0.1,0.206,0.247,0.271,0.407c0.341-0.112,0.534-0.372,0.952-0.407  c-0.251,0.267,0.119,0.678,0.407,0.816c0.097-0.12,0.125-0.546,0.271-0.952c-0.011,0.425,1.09,0.27,0.68,0  c0.219-0.424,0.168,0.541,0.678,0.272c-0.622-0.543,0.454-0.176,0.544-0.951c0.384-0.143,0.932,0.223,0.951,0  c0.417,0.133-0.156,0.362-0.136,0.543c0.552-0.457,1.584-0.74,2.174-0.136c0.022-0.104,0.434-0.716,0.815-0.407  c-0.329-0.779,0.635-0.899,1.63-0.543c-0.634-0.737,0.52,0.423,0.272-0.407c0.351,0.497,1.459,0.374,2.173,0.135  c0.283,0.041-0.202,0.368,0.271,0.407c0.506-0.448,1.371-0.454,1.63-0.814c0.144,0.784,1.103,0.761,1.63,0.543  c-0.033-0.35-0.233,0.187-0.543,0c-0.179-0.675,0.744-0.088,0.407-0.407c0.097-0.26,0.637,0.164,0.814,0.271  c-0.048,0.178-0.238,0.215-0.271,0.407c0.159-0.202,0.564-0.159,0.544-0.542c0.277,0.129,0.537,0.277,0.814,0.407  c0.11-0.025,0.136-0.136,0.271-0.136c-0.055-0.261-0.526-0.107-0.407-0.543c0.672-0.084,0.069,0.442,0.814,0.407  c0.449-0.842,1.296-0.159,1.767-0.543c-0.335,0.598,0.889,0.017,1.087,0.272c-0.048,0.178-0.239,0.213-0.272,0.407  c0.497-0.029,0.521-0.187,0.951,0c0.184-0.133,0.271-0.362,0.407-0.543c0.063,0.514,1.612,0.736,1.902,0.272  c0.251,0.02,0.083,0.459,0.271,0.542c0.16-0.156,0.479-0.153,0.814-0.135c-0.228-0.98,0.652,0.35,1.224-0.136  c-0.02,0.546,0.348,0.359,0.679,0.271c0.046,0.272-0.027,0.425-0.271,0.409c0.283,0.215,0.714,0.281,1.222,0.271  c0-0.136,0-0.271,0-0.407c-0.536-0.177-0.328,0.499-0.679,0.136c0.55-0.482,1.795-0.272,1.901,0.271  c0.326,0.055-0.075-0.618,0.408-0.407c-0.353,0.614,0.629,0.489,1.222,0.543c0.433,0.226-0.663,0.045-0.68,0.271  c0.591,0.289,0.828-0.077,1.494,0.136c0.059,0.284-0.093,0.359-0.135,0.543c0.34,0.024,0.425-0.208,0.543-0.407  c0.532,0.146,0.721,0.637,1.357,0.68c-0.018,0.387-0.565,0.247-0.95,0.271c0.077,0.392,0.1,0.236,0.272,0.68  c0.296-0.586,0.184-0.256,0.543-0.68c0.551,0.16,0.849-0.063,1.222,0c0.272,1.035,1.343,0.393,1.901,1.494  c0.392-0.076,0.236-0.098,0.68-0.271c0.061,0.476,0.287,0.576,0.68,0.407c0.5,0.216-0.55-0.031-0.272,0.407  c0.034,0.35,0.234-0.187,0.545,0c-0.013,0.192-0.022,0.385,0.135,0.407c-0.193,0.155-0.735,0.038-0.95,0  c0.071,0.11,0.142,0.221,0.136,0.407c0.299-0.028,0.645-0.552,0.407,0c0.452-0.244,0.769-0.321,1.358-0.135  c0.024,0.115-0.053,0.128-0.137,0.135c0,0.091,0,0.181,0,0.272c-0.146-0.034-0.091-0.27-0.271-0.272  c-0.566,0.91,1.38,0.969,1.902,0.816c0.036,0.219-0.129,0.233-0.138,0.407c0.264-0.321,0.419,0.455,0.815,0  c0.325,0.08-0.329,0.285-0.408,0.407c0.503,0.451,1.398,0.504,1.494,1.359c0.333-0.076,0.291-0.527,0.815-0.407  c-0.07,0.502-0.231,0.341,0.272,0.271c0.048,0.591,0.021,0.625,0.137,0.951c0.456-0.239,0.696,0.091,1.357,0  c-0.058,0.258-0.389,0.246-0.272,0.68c0.015,0.348,0.507,0.217,0.68,0.407c0.01-0.434-0.907-0.301-0.407-0.816  c0.304,0.606,0.409,0.241,0.679,0c0.11,0.026,0.136,0.136,0.272,0.136c-0.025,0.116,0.053,0.129,0.135,0.136  c-0.099,0.126-0.247,0.206-0.407,0.271c0.088,0.139,0.313,0.14,0.272,0.407c0.12-0.059,0.242-0.12,0.272-0.271  c0.132,0.084-0.061,0.731,0.407,0.814c0.462-0.145-0.38-0.042-0.138-0.407c0.728-0.107,0.453,0.937,1.087,0.543  c-0.079,0.434,0.255,0.419,0,0.679c0.404-0.159,0.682,0.343,0.68,0.68c0.109-0.071,0.222-0.142,0.407-0.136  c0.331,0.835,1.053,1.585,1.831,2.315c-0.015-0.225-0.057-0.434-0.166-0.608c0.168-0.145,0.267-0.008,0.418-0.091  c-0.271-0.434-0.388-1.493-0.662-2.449c0.308-0.3,0.414,0.188,0.722-0.114c-1.486-0.254-0.933-3.12-1.82-4.131  c0.217-0.11,0.16-0.29,0.397-0.395c-1.226-1.177-0.625-2.566-1.613-3.782c0.269-0.274,0.374,0.094,0.606-0.043  c-1.024-0.827-0.548-1.087-0.901-1.518c0.099-0.441,0.329-0.387,0.747-0.602c-0.184-0.312-0.52-0.035-0.696-0.376  c0.41-0.341,0.424-0.382,0.888-0.368c-0.736-0.175-1.307-0.41-1.253-1.31c-0.341,0.362-0.093,0.329-0.073,0.676  c-0.323-0.198-1.161-2.112-0.685-2.754c-0.223-0.225-0.099,0.25-0.42,0.093c0.154-0.524-0.28-1.195,0.31-1.606  c0.371,0.376,0.332,0.545,0.603,0.747c-0.565-0.896,1.158,0.076,0.679-0.718c-0.124-0.323,0.366,0.045,0.44,0.212  c0.31-0.121-0.379-0.495,0.144-0.559c0.071,0.434,0.225,0.493,0.603,0.749c-0.412,0.494-0.616,0.694-0.753,1.393  c0.621,0.35,0.142,0.854,0.529,1.425c0.304,0.108,0.669-0.025,0.979,0.05c-0.075,0.43-0.02,0.347,0.3,0.77  c0.11-0.17,0.068-0.379-0.044-0.605c-0.403-0.233-0.726-0.781-1.257-0.52c-0.081-0.251,0.079-0.442-0.112-0.722  c0.209-0.042,0.397-0.002,0.606-0.043c-0.311,0.555,0.208,0.138,0.464,0.514c0.216-0.275-0.576-0.808,0.051-0.978  c-0.033,0.388,0.654,0.959,0.087,1.21c0.117,0.058,0.234,0.118,0.325,0.282c0.057-0.118,0.118-0.234,0.281-0.326  c-0.666,0.04,0.123-0.672-0.576-1.237c0.486,0.123-0.021-0.243,0.396-0.395c0.11,0.219,0.29,0.162,0.395,0.399  c0.26-0.309-0.353-0.21-0.16-0.536c1.058-0.224,0.058,0.796,0.953,0.541c-0.123-0.209,0.025-0.458,0.467-0.278  c-0.15,0.11-0.765,0.923-0.055,1.771c-0.291,0.069-0.704-0.001-0.771,0.299c0.307,0.101,0.747-0.338,1.026-0.135  c0.432-0.287-0.44-0.906-0.273-1.259c0.174,0.321,1.104,0.837,0.507,1.12c0.555,0.492,0.743-0.254,0.68-0.719  c0.354,0.027,0.086,0.335,0.463,0.515c-0.38-0.094-0.205,0.186-0.212,0.441c-0.168,0.145-0.267,0.009-0.42,0.091  c0.313,0.497,0.271,1.455,0.574,2.029c-0.716,0.18-0.334,0.056-0.887,0.369c0.199,0.636,0.626,0.397,0.904,0.726  c-0.794-0.02-0.18,0.303-0.189,0.744c-0.173,0.162-0.274,0.041-0.373-0.094c-0.283,0.302,0.293,0.334,0.346,0.584  c0.076-0.147-0.038-0.341,0.214-0.442c0.074,0.856,0.503,1.118,1.087,1.565c-0.39,0.135-0.006,0.666-0.563,0.65  c0.271,0.424,0.346,0.192,0.608-0.043c-0.012,0.146-0.019,0.292,0.138,0.233c0.056,0.279-0.127,0.497-0.377,0.698  c-0.183-0.296,0.003-0.195,0.164-0.255c-0.366-0.451-0.515-0.275-0.908,0.064c0.526,0.312,0.674,0.989,1.416,1.056  c-0.178,0.049-0.307-0.097-0.489-0.027c-0.029,0.569,0.462,0.73,0.599,1.541c-0.301,0.156-0.27-0.375-0.278-0.468  c-0.612,0.142-0.087,0.573,0.066,0.91c-0.242,0.172-0.429,0.125-0.558-0.144c0.053,0.942,0.629,1.329,1.226,1.8  c-0.886-0.475,0.054,0.187-0.26,0.628c0.243,0.087,0.578-0.191,0.698,0.376c-0.156,0.093-0.313,0.184-0.468,0.277  c0.093,0.282,0.299,0.124,0.488,0.025c0.079,0.282-0.033,0.356-0.28,0.326c0.94,0.494-0.82,2.023,0.292,2.354  c0.05,0.179-0.097,0.306-0.025,0.489c-0.194-0.029-0.166-0.195-0.464-0.515c-0.265,0.13,0.192,0.444,0.23,0.653  c-0.233,0.139-0.468,0.277-0.702,0.416c0.07,0.117,0.14,0.233,0.208,0.352c0.112-0.072,0.006-0.197-0.021-0.305  c0.272-0.292,0.4-0.014,0.653-0.229c-0.006,0.164-0.196,0.279-0.025,0.488c-0.148,0.063-0.225-0.154-0.325-0.282  c0.376,0.854,0.244,0.289,0.53,1.424c-0.168,0.146-0.267,0.01-0.421,0.093c0.096,0.187-0.163,0.357,0.183,0.838  c0.21-0.806,0.287,0.465,0.3,0.771c0.587,0.051,0.346-0.029,0.416,0.7c-0.873-0.179-0.433-0.735-1.277-0.821  c-0.153,0.193,0.087,0.313,0.255,0.164c0.095,0.224-0.042,0.385-0.328,0.512C94.35,56.195,94.768,55.983,95.121,56.02z   M87.623,40.726c0.286,0.043,0.307,0.744,0.788,0.796C88.565,41.13,87.648,40.332,87.623,40.726z M7.995,63.988  c-0.277-0.085-0.039-0.687-0.543-0.543c0,0.226,0,0.452,0,0.68C7.655,64.101,7.953,64.173,7.995,63.988z M8.131,62.087  c-0.246-0.343-0.703-0.476-0.951-0.814c0.01,0.236-0.03,0.422-0.136,0.542c0.213,0.015,0.471-0.018,0.408,0.272  c0.237,0.01,0.422-0.03,0.543-0.136C7.989,62.096,8.059,62.297,8.131,62.087z M11.391,57.333c-0.391-0.028-0.69,0.033-0.814,0.272  c0.252,0.172-0.292,0.694-0.544,0.814c-0.031-0.242,0.137-0.68-0.272-0.544c-0.055,0.549,0.015,1.142,0,1.766  c0.693-0.217,0.17-0.473,0.408-1.222C10.671,58.152,10.959,57.67,11.391,57.333z M11.527,57.876  c-0.543,0.182-1.021,0.429-1.223,0.951C11.282,58.8,11.042,58.213,11.527,57.876z M14.107,54.752  c-0.328,0.057-0.295-0.248-0.679-0.137c0.167,0.439-0.44,0.104-0.272,0.544C13.705,55.254,13.783,54.881,14.107,54.752z   M15.737,58.827c-0.282-0.242-0.929-0.027-1.223,0.136C15.056,58.927,15.471,59.304,15.737,58.827z M15.874,52.851  c-0.057,0.306-0.745-0.02-0.68,0.407c0.398-0.035,0.417,0.307,0.815,0.271C16.05,53.213,16.299,52.945,15.874,52.851z   M17.368,52.306c-0.105-0.411,0.341-1.222-0.136-0.814c0.341,0.221-0.789,0.106-0.814,0.409c0.105,0.029,0.157,0.113,0.135,0.271  c0.437,0.119,0.186-0.446,0.543-0.407C17.126,52.004,16.959,52.443,17.368,52.306z M17.911,57.469  c-0.066,0.16-0.145,0.308-0.271,0.407c-0.002-0.136-0.238-0.171-0.271,0c0.183,0.042,0.259,0.192,0.543,0.135  C17.95,57.928,18.249,57.488,17.911,57.469z M19.133,50.813c-0.567-0.263-0.76-0.229-1.223,0.136  c0.353-0.083,0.489,0.053,0.407,0.406C18.673,51.258,18.78,50.913,19.133,50.813z M21.171,49.046  c0.204-0.022,0.501,0.049,0.543-0.136c-0.482-0.014,0.288-0.448-0.136-0.407c-0.029,0.164-0.151,0.084-0.272,0  C21.263,48.687,21.113,48.763,21.171,49.046z M22.665,51.221c-0.517,0.232-0.848-0.403-0.95-0.135  c0.083,0.006,0.161,0.02,0.135,0.135c-0.122,0.24-0.328,0.396-0.407,0.68c0.267-0.041,0.27,0.182,0.407,0.271  c-0.098-0.58,0.283-1.09,0.543-0.544C22.425,51.434,22.617,51.398,22.665,51.221z M23.072,46.195  c-0.51-0.103-0.295,0.518-0.679,0.543c0-0.136,0-0.272,0-0.409c-0.226,0-0.453,0-0.679,0c0.005,0.188-0.064,0.299-0.136,0.409  c0.428-0.066,0.307,0.417,0.815,0.271C22.666,46.783,23.024,46.644,23.072,46.195z M26.468,44.293  c-0.371-0.1-0.273,0.27-0.543,0.271c-0.108-0.292-0.125,0.501,0,0.543c0.059-0.26,0.389-0.246,0.272-0.68  C26.387,44.439,26.716,44.397,26.468,44.293z M28.642,48.096c-0.369-0.061-0.636-0.129-0.815,0  C27.638,48.343,28.702,49.136,28.642,48.096z M28.37,48.775c-0.028,0.391,0.034,0.689,0.271,0.814  C28.559,49.311,28.861,48.646,28.37,48.775z M33.803,42.798c-0.346,0.017-0.699,0.025-0.679,0.407c0.418-0.094,0.261-0.094,0.679,0  C33.803,43.07,33.803,42.934,33.803,42.798z M35.705,40.761c-0.348-0.124-0.77-0.219-0.951,0.136  C35.237,40.782,35.568,41.29,35.705,40.761z M36.792,43.885c-0.665,0.132-0.947,0.12-1.222,0.409c0.337,0.02,0.039,0.459,0,0.543  c0.183,0.042,0.259,0.192,0.542,0.135c-0.341-0.385-0.156-0.678,0.543-0.678C36.65,44.105,36.72,43.994,36.792,43.885z   M38.693,40.354c0.187-0.006,0.298,0.064,0.408,0.136c-0.043-0.316,0.022-0.521,0.136-0.68c-0.645,0.064-0.15-0.168-0.407-0.407  c-0.28-0.12-0.61,0.352-0.272,0.407C38.419,39.917,38.812,39.873,38.693,40.354z M39.508,41.44c-0.434,0.117-0.42-0.213-0.679-0.271  c0.274,0.436-0.537,0.424-0.136,0.542c0.173-0.007,0.188-0.174,0.408-0.135c0.03,0.105,0.003,0.269,0.136,0.271  C39.249,41.634,39.583,41.741,39.508,41.44z M43.447,39.675c-0.136,0-0.271,0-0.408,0c0.041,1.314,0.672,1.002,0.136,0.271  C43.341,39.931,43.497,39.905,43.447,39.675z M45.893,39.81c-0.375,0.047-0.954-0.389-1.223,0  C44.841,39.966,45.741,40.083,45.893,39.81z M46.843,41.033c-0.327,0.271-0.658-0.237-0.951,0.136c0.423,0.093,0.228,0.413,0,0.542  c0.236-0.01,0.422,0.031,0.543,0.136C46.425,41.415,46.592,41.44,46.843,41.033z M50.103,38.996c-0.058-0.302-0.721-0.107-0.815,0  C49.093,39.419,50.297,39.419,50.103,38.996z M51.188,39.403c-0.269-0.001-0.172-0.371-0.542-0.271  c0.099,0.369-0.271,0.272-0.271,0.543C50.765,39.703,51.063,39.64,51.188,39.403z M52.548,38.996  c-0.337-0.269-1.037-0.031-1.359,0.136c0.371-0.1,0.273,0.27,0.544,0.271C51.752,38.734,52.242,39.379,52.548,38.996z   M53.227,36.958c-0.27-0.003-0.173-0.371-0.543-0.272c0.054,0.326-0.619-0.074-0.408,0.407  C52.678,36.766,52.938,37.624,53.227,36.958z M56.894,39.539c-0.34,0.022-0.329-0.305-0.543-0.407c0.076,0,0.154-0.111,0-0.136  c-0.019,0.376-0.203,0.871-0.136,1.087c0.03-0.107,0.114-0.159,0.271-0.136c0.03,0.105,0.004,0.268,0.136,0.272  C56.602,39.88,56.836,39.797,56.894,39.539z M60.154,39.132c0.018,0.334,0.021,0.654-0.137,0.814  C60.595,39.919,60.668,39.229,60.154,39.132z M60.833,39.81c0.021,0.385-0.408,0.317-0.407,0.68c0.182,0,0.362,0,0.543,0  C60.82,40.143,61.433,39.79,60.833,39.81z M65.18,39.81c-0.201-0.07-0.342-0.201-0.544-0.271c-0.18,0.286,0.067,0.401-0.136,0.814  c0.255,0.007,0.288-0.104,0.136-0.271C64.945,40.12,65.147,40.049,65.18,39.81z M80.802,50.677c-0.047-0.317-0.141-0.585-0.409-0.68  C80.225,50.391,80.324,50.618,80.802,50.677z M82.974,51.764c-0.193-0.033-0.229-0.223-0.407-0.272  c-0.01,0.794-1.018-0.144-1.088,0.68C81.822,51.881,82.854,52.28,82.974,51.764z M84.197,52.171  c-0.332,0.185-0.085,0.271-0.272,0.407c-0.172-0.055-0.278-0.174-0.272-0.407c0.16-0.021,0.386,0.024,0.408-0.135  c-0.255-0.169-1.106-0.585-0.815-0.136c0.174-0.313,0.65,0.291,0.136,0.405c0.17,0.058,0.277,0.177,0.271,0.409  C84.25,52.914,84.797,52.367,84.197,52.171z M86.778,51.627c-0.512,0.227-0.62-0.631-0.816-0.271  c0.205,0.119-0.038,0.203,0.137,0.545C86.436,51.92,86.757,51.926,86.778,51.627z M88.136,58.42c0.021-0.339-0.214-0.42-0.272-0.68  c-0.308-0.066-0.815,0.341-0.407,0.543C87.66,57.834,87.789,58.565,88.136,58.42z M65.565,49.871  c0.101,0.157,0.098,0.288,0.092,0.418c0.157-0.1,0.289-0.097,0.419-0.09C66.158,49.916,65.896,49.6,65.565,49.871z M65.211,50.871  c-0.154-0.3-0.314-0.58-0.58-0.445C64.728,50.741,64.775,51.074,65.211,50.871z M65.839,51.129c-0.154,0.092-0.229-0.14-0.372-0.094  c0.066,0.241-0.154,0.023-0.303,0.021c0.186,0.311,0.37,0.623,0.555,0.934c0.148-0.063,0.319-0.215,0.42-0.09  c-0.124,0.1-0.018,0.26,0.091,0.42C66.703,51.635,65.317,51.702,65.839,51.129z M68.22,50.348c0.03-0.132-0.104-0.284-0.28-0.439  c0.034,0.107,0.081,0.223,0.093,0.361C68.09,50.308,68.15,50.338,68.22,50.348z M69.684,51.217  c-0.504,0.169,0.195,0.646-0.307,0.813C69.592,52.492,69.961,51.518,69.684,51.217z M73.689,56.105  c-0.158,0.1-0.289,0.097-0.42,0.092c-0.009,0.338,0.263,0.31,0.301,0.769C73.948,56.766,73.516,56.358,73.689,56.105z   M77.485,56.379c-0.247,0.195-0.329-0.26-0.558-0.142c0.113,0.146-0.587,0.552-0.027,0.488c-0.035-0.075-0.064-0.149,0.048-0.187  C77.095,56.432,77.583,56.805,77.485,56.379z M84.91,57.975c-0.166,0.189-0.772,0.267-0.632,0.533  C84.464,58.377,85.244,58.444,84.91,57.975z M87.533,59.735c-0.286,0.218-0.48,0.064-0.628-0.26  c-0.209,0.11-0.348,0.241-0.397,0.395c-0.101-0.159-0.098-0.291-0.092-0.421c-0.248,0.197-0.458,0.248-0.652,0.229  c0.322,0.205,0.157,0.402,0.394,0.399c0.132-0.364,0.924-0.013,1.28,0.027C87.348,59.951,87.581,59.879,87.533,59.735z   M92.998,46.854c-0.32,0.385,0.031,0.478-0.376,0.697c0.119,0.254,0.351,1.231,0.533,0.63c-0.375,0.055-0.022-0.521-0.113-0.722  c0.293,0.338,0.243,0.591,0.369,0.887c0.446-0.084,0.174-0.353,0.329-0.511c0.068,0.118,0.177,0.083,0.254,0.164  c-0.218,0.109-0.204,0.278-0.025,0.489c0.208-0.145,0.344-0.309,0.33-0.511c-0.721-0.017-0.061-0.728-0.673-0.865  c0.161,0.306,0.1,0.554-0.189,0.744c-0.042-0.208-0.003-0.396-0.045-0.605C93.046,47.599,92.966,46.989,92.998,46.854z   M90.308,58.147c0.147,0.039,0.313,0.067,0.477,0.08c-0.034-0.125-0.069-0.249-0.103-0.374  C90.535,57.888,90.403,57.963,90.308,58.147z M93.195,49.58c-0.567,0.125-0.202-0.284-0.348-0.584  c-0.591,0.312-0.639-0.484-0.717-0.678c-0.163,0.124-0.458,0.213-0.399,0.395c0.52,0.284,1.039,0.647,0.949,1.333  C92.965,50.125,93.209,49.847,93.195,49.58z M92.108,48.015c0.469-0.056-0.121-0.874-0.301-0.77  C91.756,47.463,91.92,47.736,92.108,48.015z M92.684,44.198c-0.148,0.454,0.809,1.128,0.486,0.817  C92.892,44.767,93.143,44.164,92.684,44.198z M92.086,42.658c0.138,0.397,0.729,0.988,0.767,0.491  C92.555,43.11,92.604,42.509,92.086,42.658z M90.929,40.974c0.334,0.244,0.608,0.73,0.88,1.216c0.323-0.236,0.712,0.21,0.585-0.347  c-0.182,0.056-0.322-0.034-0.538,0.16C91.809,41.903,91.365,40.762,90.929,40.974z M92.949,62.205  c-0.507-0.031-0.878-0.494-0.555-0.934c-0.283-0.305-0.183,0.26-0.466,0.276c-0.352-0.29-0.169-0.258-0.416-0.7  c-0.062-0.47,0.341,0.414,0.51,0.328c0.215-0.661-0.474-0.577-0.811-1.098c-0.091-0.528-0.24-1.153-0.407-1.772  c-0.819,0.364-0.029,1.539-1.446,1.472c-0.05,0.231,0.104,0.257,0.271,0.272c-0.007,0.154-0.1,0.222-0.231,0.253  c0.12,0.038,0.25,0.048,0.369,0.001c-0.01,0.147-0.019,0.292,0.139,0.233c-0.48,0.574,0.591,0.411,0.368,0.888  c0.385,0.043,0.809-0.06,1.07,0.47c0.217-0.109,0.159-0.289,0.396-0.393c-0.161,0.84,0.155-0.135,0.532,0.63  c-0.238-0.093-0.567,0.15-0.744-0.189c-0.264,0.131,0.194,0.446,0.23,0.654C92.071,62.024,92.433,62.534,92.949,62.205z   M93.487,62.045c-0.022-0.199-0.484-1.27-0.977-0.844C92.815,61.563,93.16,61.769,93.487,62.045z M94.056,59.812  c-0.269,0.359-0.831-0.045-0.771,0.299c0.183-0.067,0.286,0.177,0.442,0.212c-0.05,0.473-0.451,0.241-0.375,0.696  c0.226-0.07,0.064,0.166,0.207,0.352c0.22-0.407,0.375-0.83,0.518-1.256c0.206,0.359,0.46,0.532,0.767,0.493  c-0.08-0.164-0.163-0.773-0.208-0.352c0.036,0.076,0.064,0.149-0.048,0.188C94.462,60.036,94.184,60.219,94.056,59.812z"/>
</g>
</svg>
