<svg xmlns:dc="http://purl.org/dc/elements/1.1/" xmlns:cc="http://creativecommons.org/ns#" xmlns:rdf="http://www.w3.org/1999/02/22-rdf-syntax-ns#" xmlns:svg="http://www.w3.org/2000/svg" xmlns="http://www.w3.org/2000/svg" xmlns:sodipodi="http://sodipodi.sourceforge.net/DTD/sodipodi-0.dtd" xmlns:inkscape="http://www.inkscape.org/namespaces/inkscape" version="1.1" x="0px" y="0px" viewBox="0 0 100 100">

  <g transform="translate(0,-952.36218)" fill="white">
    <path style="text-indent:0;text-transform:none;direction:ltr;block-progression:tb;baseline-shift:baseline;color:#000000;enable-background:accumulate;" d="M 50 6 C 38.730811 6 27.458159 10.29184 18.875 18.875 C 1.7086816 36.04132 1.7086819 63.9587 18.875 81.125 C 36.041318 98.2913 63.958682 98.2913 81.125 81.125 C 98.291318 63.9587 98.291318 36.04132 81.125 18.875 C 72.541841 10.29184 61.269189 6 50 6 z M 50 10 C 60.228285 10 70.462389 13.899885 78.28125 21.71875 C 93.918973 37.35647 93.918973 62.64355 78.28125 78.28125 C 62.643528 93.91895 37.356473 93.91895 21.71875 78.28125 C 6.0810271 62.64355 6.081028 37.35647 21.71875 21.71875 C 29.537612 13.899885 39.771715 10 50 10 z M 31.78125 29.96875 A 2.0001999 2.0001999 0 0 0 30.59375 33.40625 L 47.1875 50 L 30.59375 66.5625 A 2.0001999 2.0001999 0 1 0 33.40625 69.40625 L 50 52.8125 L 66.59375 69.40625 A 2.0001999 2.0001999 0 1 0 69.40625 66.5625 L 52.8125 50 L 69.40625 33.40625 A 2.0001999 2.0001999 0 0 0 67.75 29.96875 A 2.0001999 2.0001999 0 0 0 66.59375 30.5625 L 50 47.15625 L 33.40625 30.5625 A 2.0001999 2.0001999 0 0 0 31.78125 29.96875 z " transform="translate(0,952.36218)" fill-opacity="1" stroke="none" marker="none" visibility="visible" display="inline" overflow="visible"/>
</g>
</svg>
