<svg xmlns="http://www.w3.org/2000/svg" xmlns:xlink="http://www.w3.org/1999/xlink" version="1.1" x="0px" y="0px" viewBox="10 0 80 100" style="enable-background:new 0 0 100 100;" xml:space="preserve">
    <path fill="white" d="M56.821,18.195l32.176,55.738c3.074,5.325-0.829,11.816-6.821,11.816H17.824c-6.025,0-9.885-6.516-6.821-11.824  l0.004,0.002l32.172-55.724c0.718-1.243,1.701-2.227,2.871-2.903l-0.002-0.003c2.411-1.393,5.493-1.393,7.904,0L53.95,15.3  c1.168,0.675,2.15,1.656,2.867,2.897L56.821,18.195L56.821,18.195z M50,67.432c-1.121,0-2.136,0.455-2.87,1.189l0.004,0.004  c-3.779,3.785,1.946,9.51,5.731,5.731l0.004,0.004C55.436,71.795,53.569,67.432,50,67.432L50,67.432z M48.225,38.514  c-1.121,0-2.029,0.909-2.029,2.029v21.839c0,1.121,0.909,2.029,2.029,2.029c2.358,0,5.581,0.567,5.581-2.029V40.543  C53.805,37.947,50.582,38.514,48.225,38.514L48.225,38.514z M85.496,75.952l-0.004,0.002L53.317,20.216  c-0.861-2.078-4.937-2.94-6.634,0L14.507,75.954c-0.151,0.564-1.138,1.854,0,3.824c0.721,1.248,1.873,1.912,3.317,1.912h64.352  c0.721,0,1.376-0.169,1.925-0.484l-0.002-0.004C85.858,80.186,86.594,77.861,85.496,75.952z"/>
</svg>