<svg xmlns="http://www.w3.org/2000/svg" version="1.1" viewBox="0 -10 100.0 110.0">
 <g fill="white">
  <path d="m90.625 35.938h-7.8125v-1.5625c0-2.5859-2.1016-4.6875-4.6875-4.6875h-1.5625v-23.438c0-0.86328-0.69922-1.5625-1.5625-1.5625h-50c-0.86328 0-1.5625 0.69922-1.5625 1.5625v23.438h-1.5625c-2.5859 0-4.6875 2.1016-4.6875 4.6875v1.5625h-7.8125c-2.5859 0-4.6875 2.1016-4.6875 4.6875v21.875c0 0.86328 0.69922 1.5625 1.5625 1.5625s1.5625-0.69922 1.5625-1.5625v-21.875c0-0.85938 0.69922-1.5625 1.5625-1.5625h81.25c0.86328 0 1.5625 0.70312 1.5625 1.5625v37.5c0 0.85938-0.69922 1.5625-1.5625 1.5625h-6.25c-0.86328 0-1.5625 0.69922-1.5625 1.5625s0.69922 1.5625 1.5625 1.5625h6.25c2.5859 0 4.6875-2.1016 4.6875-4.6875v-37.5c0-2.5859-2.1016-4.6875-4.6875-4.6875zm-70.312-1.5625c0-0.85938 0.69922-1.5625 1.5625-1.5625h1.5625v3.125h-3.125zm6.25-3.125v-23.438h46.875v28.125h-46.875zm50 4.6875v-3.125h1.5625c0.86328 0 1.5625 0.70312 1.5625 1.5625v1.5625z"/>
  <path d="m15.625 79.688h-6.25c-0.86328 0-1.5625-0.70312-1.5625-1.5625v-3.125c0-0.86328-0.69922-1.5625-1.5625-1.5625s-1.5625 0.69922-1.5625 1.5625v3.125c0 2.5859 2.1016 4.6875 4.6875 4.6875h6.25c0.86328 0 1.5625-0.69922 1.5625-1.5625s-0.69922-1.5625-1.5625-1.5625z"/>
  <path d="m81.25 48.438h-62.5c-0.86328 0-1.5625 0.69922-1.5625 1.5625s0.69922 1.5625 1.5625 1.5625h1.5625v42.188c0 0.86328 0.69922 1.5625 1.5625 1.5625h56.25c0.86328 0 1.5625-0.69922 1.5625-1.5625v-42.188h1.5625c0.86328 0 1.5625-0.69922 1.5625-1.5625s-0.69922-1.5625-1.5625-1.5625zm-57.812 39.711 17.188-17.188 21.227 21.227h-38.414zm42.836 4.0391-7.8125-7.8125 7.1641-7.1641 10.938 10.938v4.0391zm10.289-8.4609-9.832-9.832c-0.60938-0.60938-1.5977-0.60938-2.2109 0l-8.2695 8.2695-14.52-14.52c-0.60938-0.60938-1.5977-0.60938-2.2109 0l-16.082 16.082v-32.164h53.125z"/>
  <path d="m56.25 70.312c4.3086 0 7.8125-3.5039 7.8125-7.8125s-3.5039-7.8125-7.8125-7.8125-7.8125 3.5039-7.8125 7.8125 3.5039 7.8125 7.8125 7.8125zm0-12.5c2.5859 0 4.6875 2.1016 4.6875 4.6875s-2.1016 4.6875-4.6875 4.6875-4.6875-2.1016-4.6875-4.6875 2.1016-4.6875 4.6875-4.6875z"/>
  <path d="m7.8125 68.75c0 2.082-3.125 2.082-3.125 0s3.125-2.082 3.125 0"/>
 </g>
<g transform="scale(0.5) translate(150, -10)" fill="white">
  <path d="m91.668 19.832v60.336c-0.023438 6.3398-5.1602 11.477-11.5 11.5h-60.336c-6.3398-0.023438-11.477-5.1602-11.5-11.5v-60.336c0.023438-6.3398 5.1602-11.477 11.5-11.5h60.336c6.3398 0.023438 11.477 5.1602 11.5 11.5z"/>
</g>
<text xmlns="http://www.w3.org/2000/svg" x="81" y="32" font-size="35" font-weight="bold" font-family="Arbeit Regular, Helvetica, Arial-Unicode, Arial, Sans-serif" fill="black">x1</text>
</svg>
