<svg xmlns="http://www.w3.org/2000/svg" version="1.1" viewBox="0.0 0.0 100.0 100.0">
 <g fill="white">
  <path d="m18 92.188h63.996c5.4688 0 9.918-4.4492 9.918-9.918v-54.93c0-2.6484-1.0312-5.1406-2.9062-7.0117l-9.6055-9.6094c-1.875-1.875-4.3633-2.9062-7.0156-2.9062h-54.387c-5.4688 0-9.918 4.4492-9.918 9.918v64.539c0 5.4688 4.4492 9.918 9.918 9.918zm53.875-6.25h-43.75v-31.25c0-1.7227 1.4023-3.125 3.125-3.125h37.5c1.7227 0 3.125 1.4023 3.125 3.125zm-39.062-71.875h31.25v12.5c0 1.7227-1.4023 3.125-3.125 3.125h-25c-1.7227 0-3.125-1.4023-3.125-3.125zm-18.477 3.668c0-2.0234 1.6445-3.668 3.668-3.668h8.5625v12.5c0 5.1719 4.2031 9.375 9.375 9.375h25c5.1719 0 9.375-4.2031 9.375-9.375v-12.5h2.0781c0.96484 0 1.9141 0.39062 2.5938 1.0742l9.6055 9.6094c0.69141 0.69141 1.0742 1.6133 1.0742 2.5938v54.93c0 2.0234-1.6445 3.668-3.668 3.668h-3.875v-31.25c0-5.1719-4.2031-9.375-9.375-9.375h-37.5c-5.1719 0-9.375 4.2031-9.375 9.375v31.25h-3.875c-2.0234 0-3.668-1.6445-3.668-3.668v-64.539z"/>
  <path d="m65.285 58.629h-30.57c-1.7266 0-3.125 1.3984-3.125 3.125 0 1.7266 1.3984 3.125 3.125 3.125h30.57c1.7266 0 3.125-1.3984 3.125-3.125 0-1.7266-1.3984-3.125-3.125-3.125z"/>
  <path d="m65.285 71.941h-30.57c-1.7266 0-3.125 1.3984-3.125 3.125 0 1.7266 1.3984 3.125 3.125 3.125h30.57c1.7266 0 3.125-1.3984 3.125-3.125 0-1.7266-1.3984-3.125-3.125-3.125z"/>
 </g>
</svg>
