<svg xmlns="http://www.w3.org/2000/svg" xmlns:xlink="http://www.w3.org/1999/xlink" version="1.1" x="0px" y="0px" viewBox="0 0 512 512" xml:space="preserve">
  <path d="M372,231c-7.6,0-14.6,2.3-20.5,6.3v-3.8c0-20.1-16.4-36.5-36.5-36.5c-7.6,0-14.6,2.3-20.5,6.3v-8.5  c0-20.1-16.4-36.5-36.5-36.5c-7.6,0-14.6,2.3-20.5,6.3V97.7c0-20.1-16.4-36.5-36.5-36.5c-20.1,0-36.5,16.4-36.5,36.5v152.2  c-18,1.8-31.7,14-38.8,34.8c-13.4,39.3,0.2,104.6,38.4,133.2c21.3,16,28.7,27.5,30.6,31V504c0,4.4,3.6,8,8,8h144.2c4.4,0,8-3.6,8-8  c0-14.6-0.4-25.1-0.7-32.9c-0.8-22.2-0.8-22.2,13.2-45.5c3-5.1,6.8-11.4,11.3-19.1c27.3-46.8,29.6-94.4,29.6-139.2  C408.5,247.3,392.1,231,372,231z M365.1,398.5c-4.4,7.6-8.2,13.9-11.2,18.9c-16,26.6-16.4,28.1-15.5,54.3c0.2,6.1,0.5,14,0.6,24.3  H210.9v-48.9c0-1-0.2-1.9-0.5-2.8c-0.6-1.7-7-17.1-36.5-39.2c-32.3-24.2-44.2-81.8-32.8-115.2c3.4-9.9,10.2-21.6,23.6-23.8v53.4  c0,4.4,3.6,8,8,8s8-3.6,8-8V97.7c0-11.3,9.2-20.5,20.5-20.5c11.3,0,20.5,9.2,20.5,20.5v203.4c0,4.4,3.6,8,8,8c4.4,0,8-3.6,8-8V194.7  c0-11.3,9.2-20.5,20.5-20.5c11.3,0,20.5,9.2,20.5,20.5v106.4c0,4.4,3.6,8,8,8s8-3.6,8-8v-67.7c0-11.3,9.2-20.5,20.5-20.5  s20.5,9.2,20.5,20.5v34v33.7c0,4.4,3.6,8,8,8s8-3.6,8-8v-33.7c0-11.3,9.2-20.5,20.5-20.5c11.3,0,20.5,9.2,20.5,20.5  C392.5,310,390.4,355.2,365.1,398.5z M243.6,127.6c6.2-8.8,9.5-19.1,9.5-29.9c0-28.6-23.3-51.9-51.9-51.9  c-28.6,0-51.9,23.3-51.9,51.9c0,10.8,3.3,21.1,9.5,29.9c2.6,3.6,1.7,8.6-1.9,11.2c-3.6,2.6-8.6,1.7-11.2-1.9  c-8.1-11.5-12.4-25-12.4-39.1c0-37.5,30.5-67.9,67.9-67.9c37.5,0,68,30.5,68,67.9c0,14.1-4.3,27.7-12.4,39.1c-1.6,2.2-4,3.4-6.5,3.4  c-1.6,0-3.2-0.5-4.6-1.5C241.9,136.2,241.1,131.2,243.6,127.6z M103.5,97.7c0-53.9,43.8-97.7,97.7-97.7c53.9,0,97.7,43.8,97.7,97.7  c0,20-6,39.3-17.4,55.7c-2.5,3.6-7.5,4.5-11.1,2c-3.6-2.5-4.5-7.5-2-11.1c9.5-13.7,14.6-29.8,14.6-46.6c0-45-36.6-81.7-81.7-81.7  c-45,0-81.7,36.6-81.7,81.7c0,27.7,13.9,53.3,37.2,68.5c3.7,2.4,4.8,7.4,2.3,11.1c-1.5,2.4-4.1,3.6-6.7,3.6c-1.5,0-3-0.4-4.4-1.3  C120.1,161.4,103.5,130.8,103.5,97.7z" fill="white"/>
</svg>
