<svg xmlns="http://www.w3.org/2000/svg" version="1.1" viewBox="0.0 0.0 100.0 100.0">
 <path d="m44.18 75.789v-38.711c0-2.0703-1.6797-3.7383-3.7383-3.7383-2.0703 0-3.7383 1.6797-3.7383 3.7383v38.719c0 2.0703 1.6797 3.7383 3.7383 3.7383 2.0703 0.003906 3.7383-1.6758 3.7383-3.7461zm24.129-60.059h25.449c2.0703 0 3.7383 1.6797 3.7383 3.7383 0 2.0703-1.6797 3.7383-3.7383 3.7383h-4.6914l-7.7812 61.57c-0.42969 3.4219-2.1914 6.5-4.6719 8.7188-2.5117 2.2383-5.7812 3.6289-9.1992 3.6289l-2.8125 0.003906h-32.023c-3.4219 0-6.6914-1.3906-9.1992-3.6289-2.4805-2.2188-4.2383-5.3008-4.6719-8.7188l-7.7812-61.57h-4.6875c-2.0703 0-3.7383-1.6797-3.7383-3.7383 0-2.0703 1.6797-3.7383 3.7383-3.7383h25.449v-3.3203c0-2.6289 1.0703-5.0195 2.8008-6.75 1.7305-1.7305 4.1211-2.8008 6.75-2.8008h17.512c2.6289 0 5.0195 1.0703 6.75 2.8008 1.7305 1.7305 2.8008 4.1211 2.8008 6.75v3.3164zm-29.129 0h21.641v-3.3203c0-0.57031-0.23047-1.0781-0.60937-1.4609-0.37891-0.37891-0.89063-0.60938-1.4609-0.60938h-17.5c-0.55859 0-1.0781 0.23047-1.4609 0.60938-0.37891 0.37891-0.60937 0.89062-0.60937 1.4609zm25.379 7.4883h16.988l-7.6602 60.629c-0.19922 1.5703-1.0508 3.0312-2.25 4.1016-1.1797 1.0508-2.6797 1.6992-4.2188 1.6992h-34.84c-1.5508 0-3.0508-0.64844-4.2188-1.6992-1.1992-1.0703-2.0508-2.5312-2.25-4.1016l-7.6602-60.629zm-8.7383 13.859v38.719c0 2.0703 1.6797 3.7383 3.7383 3.7383 2.0703 0 3.7383-1.6797 3.7383-3.7383l0.003906-38.719c0-2.0703-1.6797-3.7383-3.7383-3.7383-2.0742 0-3.7422 1.6719-3.7422 3.7383z" fill-rule="evenodd" fill="white"/>
</svg>
